/* XPM */
static char *result[] = {
/* columns rows colors chars-per-pixel */
"64 64 247 2 ",
"   c black",
".  c #070005",
"X  c #1F0010",
"o  c #350000",
"O  c #08012A",
"+  c #000039",
"@  c #25053B",
"#  c #301B31",
"$  c #0A3036",
"%  c #550406",
"&  c #6B0E1A",
"*  c #63092C",
"=  c #4F2D34",
"-  c #653B3D",
";  c #5E4F31",
":  c #6A4F33",
">  c #6E6530",
",  c #000050",
"<  c #300047",
"1  c #2E2A57",
"2  c #04116C",
"3  c #000078",
"4  c #001977",
"5  c #330067",
"6  c #022377",
"7  c #152C74",
"8  c #323571",
"9  c #4D374D",
"0  c #702A55",
"q  c #4F0768",
"w  c #335B5E",
"e  c #314378",
"r  c #524C52",
"t  c #704F52",
"y  c #716E51",
"u  c #534C6C",
"i  c #685B76",
"p  c #6F676D",
"a  c #766876",
"s  c #78777B",
"d  c #990000",
"f  c #8A0010",
"g  c #AB0000",
"h  c #B60001",
"j  c #BA001A",
"k  c #B92A17",
"l  c #93102E",
"z  c #B20E32",
"x  c #922D2F",
"c  c #AE2531",
"v  c #A92636",
"b  c #C90003",
"n  c #D30001",
"m  c #DA0309",
"M  c #CA0018",
"N  c #DA0219",
"B  c #D3171C",
"V  c #E20000",
"C  c #E60204",
"Z  c #F50000",
"A  c #F90000",
"S  c #E50317",
"D  c #F3071A",
"F  c #DD2815",
"G  c #E5380C",
"H  c #D90B24",
"J  c #D0162D",
"K  c #E70526",
"L  c #EA152D",
"P  c #F21031",
"I  c #D12B29",
"U  c #C92634",
"Y  c #DA2835",
"T  c #D9383C",
"R  c #EA3423",
"E  c #E72A37",
"W  c #F32B39",
"Q  c #E9343A",
"!  c #F6333E",
"~  c #AF4B19",
"^  c #8E562B",
"/  c #AD4D28",
"(  c #886E30",
")  c #B37332",
"_  c #E2661E",
"`  c #C95C2F",
"'  c #E45931",
"]  c #903F43",
"[  c #D73A44",
"{  c #CB345E",
"}  c #E63744",
"|  c #F13443",
" . c #8F5156",
".. c #B9585B",
"X. c #996F4C",
"o. c #A87455",
"O. c #8B5962",
"+. c #87646A",
"@. c #926D78",
"#. c #AB6873",
"$. c #A97579",
"%. c #D5484E",
"&. c #D8535B",
"*. c #F1474E",
"=. c #E55C49",
"-. c #E84955",
";. c #E4535B",
":. c #E47354",
">. c #D35461",
",. c #E35C63",
"<. c #F85860",
"1. c #D56B74",
"2. c #DA787C",
"3. c #E6656A",
"4. c #F1736F",
"5. c #E87579",
"6. c #748075",
"7. c #9A893B",
"8. c #AE9F2C",
"9. c #C59E39",
"0. c #E39620",
"q. c #D3B237",
"w. c #E0BD35",
"e. c #EBCE2E",
"r. c #E6CA3A",
"t. c #979055",
"y. c #A98B4B",
"u. c #A89D63",
"i. c #AC906A",
"p. c #D78D54",
"a. c #F38C4D",
"s. c #C9AA55",
"d. c #F7A84E",
"f. c #C39C73",
"g. c #EC8F70",
"h. c #CCB361",
"j. c #F3AC63",
"k. c #F1AA74",
"l. c #D6C642",
"z. c #D3CF46",
"x. c #E6DB51",
"c. c #F1E84D",
"v. c #D0C369",
"b. c #F9C56A",
"n. c #E1C17D",
"m. c #FBC877",
"M. c #FED179",
"N. c #000F8C",
"B. c #0E308C",
"V. c #143898",
"C. c #293C8A",
"Z. c #0035A1",
"A. c #384C93",
"S. c #364DA5",
"D. c #3B50A0",
"F. c #4C558E",
"G. c #5E6795",
"H. c #75768F",
"J. c #646A97",
"K. c #485BAD",
"L. c #5A65A4",
"P. c #5867B4",
"I. c #6C77B2",
"U. c #6E7AC3",
"Y. c #917B8C",
"T. c #C07581",
"R. c #7782A5",
"E. c #7B84C8",
"W. c #878A96",
"Q. c #909097",
"!. c #989599",
"~. c #AA8E8E",
"^. c #A6969A",
"/. c #ABB192",
"(. c #9A99A5",
"). c #9399B3",
"_. c #A69EA2",
"`. c #BE9BA3",
"'. c #A7A5A8",
"]. c #B4A5AB",
"[. c #A8AAB6",
"{. c #B9ACB1",
"}. c #B3B3B6",
"|. c #BDBCBE",
" X c #C39598",
".X c #E78489",
"XX c #F18A8E",
"oX c #E59598",
"OX c #F9999C",
"+X c #C3B482",
"@X c #ECB88B",
"#X c #F49FA2",
"$X c #C8AAAC",
"%X c #D2B3B5",
"&X c #E8A7AB",
"*X c #F7A5A7",
"=X c #E9B1B4",
"-X c #F9B7B9",
";X c #D8CE9C",
":X c #FBCD88",
">X c #FDD886",
",X c #FDD38C",
"<X c #EACE94",
"1X c #F7CA95",
"2X c #FBD998",
"3X c #E7E586",
"4X c #FDE397",
"5X c #E5CEA9",
"6X c #FBD9A1",
"7X c #FCE4A7",
"8X c #FDEAB2",
"9X c #8990CD",
"0X c #8B93CC",
"qX c #9298CD",
"wX c #979DD4",
"eX c #9FA5CF",
"rX c #9DA2D5",
"tX c #A8ACCC",
"yX c #BBBCC3",
"uX c #A7ABD8",
"iX c #ADB1DD",
"pX c #B5B8DA",
"aX c #B8BBE0",
"sX c #EDBEC1",
"dX c #BEC0C4",
"fX c #BDC1DB",
"gX c #BDC2E0",
"hX c #C6C5CA",
"jX c #D2C8C8",
"kX c #C9CAD2",
"lX c #D9D7D8",
"zX c #E7C9CB",
"xX c #F7C7C8",
"cX c #E7D9DA",
"vX c #F6D7D7",
"bX c #EBE6DC",
"nX c #CACCE6",
"mX c #D4D5E6",
"MX c #E9DEE1",
"NX c #E1E0E3",
"BX c #EDE2E5",
"VX c #EBEBEC",
"CX c #F7EAEB",
"ZX c #EFF1F5",
"AX c #F6F4F6",
"SX c #FBF4F5",
"DX c #FFFFFF",
/* pixels */
"DXDXDXDXDXDXDXDXDXDXDXDXDXDXDXDXDXDXDXDXDXDXDXDXDXDXDXDXDXDXAXAXDXDXDXDXAXDXDXAXDXDXDXDXDXDXDXDXDXDXDXDXDXDXDXDXDXDXDXDXDXDXDXDX",
"DXDXDXDXDXDXDXDXDXDXDXDXDXDXDXDXDXDXDXDXDXDXDXDXDXAXDXAXAXDXDXDXAXDXDXSXDXAXAXDXDXDXDXDXDXDXDXDXDXDXDXDXDXDXDXDXDXDXDXDXDXDXDXDX",
"DXDXDXDXDXDXDXDXDXDXDXDXDXDXDXDXDXDXDXDXDXDXDXDXAXDXDXDXDXDXDXAXDXAXDXDXDXAXDXDXDXDXDXDXDXDXDXDXDXDXDXDXDXDXDXDXDXDXDXDXDXDXDXDX",
"DXDXDXDXDXDXDXDXDXDXDXDXDXDXDXDXDXDXDXDXDXDXAXDXDXDXDXAXAXDXDXDXDXDXVX|.|.VXDXlXZXDXDXDXDXDXDXDXDXDXDXDXDXDXDXDXDXDXDXDXDXDXDXDX",
"DXDXDXDXDXDXDXDXDXDXDXDXDXDXDXDXDXDXDXDXDXDXDXDXDXDXDXDXAXDXDXDXAXDXNXyXkXZXDXVXAXDXDXDXDXDXDXDXDXDXDXDXDXDXDXDXDXDXDXDXDXDXDXDX",
"DXDXDXDXDXDXDXDXDXDXDXDXDXDXDXDXDXDXDXDXDXAXDXDXDXAXDXDXDXDXAXVXNXlXkXkXdX}.[.).VXDXDXDXDXDXDXDXDXDXDXDXDXDXDXDXDXDXDXDXDXDXDXDX",
"DXDXDXDXDXDXDXDXDXDXDXDXDXDXDXDXDXDXDXDXDXZXnXmXnXnXnXnXnXnXeX0X0XE.P.K.A.6 P.V.NXDXDXDXDXDXDXDXDXDXDXDXDXDXDXDXDXDXDXDXDXDXDXDX",
"DXDXDXDXDXDXDXDXDXDXDXDXDXDXDXDXDXDXDXDXDXZXrXaXpXiXiXuXE.9XiXwX9XE.U.E.P.I.0X8 VXDXDXDXDXDXDXDXDXDXDXDXDXDXDXDXDXDXDXDXDXDXDXDX",
"DXDXDXDXDXDXDXDXDXDXDXDXDXDXDXDXDXDXDXDXDXAX9XuXrXwXtXeXwXwXpX9XD.C.A.K.D.E.G.7 VXDXDXDXDXDXDXDXDXDXDXDXDXDXDXDXDXDXDXDXDXDXDXDX",
"DXDXDXDXDXDXDXDXDXDXDXDXDXDXDXDXDXDXDXDXDXDX9XwXE.P.K.E.rXrXqXV.6 4 4 6 P.I.F.F.AXDXDXDXDXDXDXDXDXDXDXDXDXDXDXDXDXDXDXDXDXDXDXDX",
"DXDXDXDXDXDXDXDXDXDXDXDXDXDXDXDXDXDXDXDXDXDX0XU.E.P.R./././.6.3 B.C.7 6 A.G.L.G.AXDXDXDXDXDXDXDXDXDXDXDXDXDXDXDXDXDXDXDXDXDXDXDX",
"DXDXDXDXDXDXDXDXDXDXDXDXDXDXDXDXDXDXDXDXDXDXeXP.S.)./.R.u p t.u 2 4 N.3 A.L.D.G.SXDXDXDXDXDXDXDXDXDXDXDXDXDXDXDXDXDXDXDXDXDXDXDX",
"DXDXDXDXDXDXDXDXDXDXDXDXDXDXDXDXDXDXDXDXDXDXeXP.L.R.K.Z.3 q 0 6 q 8 p H.J.R.L.H.DXDXDXDXDXDXDXDXDXDXDXDXDXDXDXDXDXDXDXDXDXDXDXDX",
"DXDXDXDXDXDXDXDXDXDXDXDXDXDXDXDXDXDXDXDXDXDXtXD.fXdXD.8 3 o.t.q 0.u s W.R.'.i.W.DXDXDXDXDXDXDXDXDXDXDXDXDXDXDXDXDXDXDXDXDXDXDXDX",
"DXDXDXDXDXDXDXDXDXDXDXDXDXDXDXDXDXDXDXDXDXDXpXP.kXfXA.6 2 p  . .0. ...Y.A.J.8 Q.DXDXDXDXDXDXDXDXDXDXDXDXDXDXDXDXDXDXDXDXDXDXDXDX",
"DXDXDXDXDXDXDXDXDXDXDXDXDXDXDXDXDXDXDXDXDXDXfXP.(.'.e 5 3 l w.w.) x.e.i.G.R.1 !.DXDXDXDXDXDXDXDXDXDXDXDXDXDXDXDXDXDXDXDXDXDXDXDX",
"DXDXDXDXDXDXDXDXDXDXDXDXDXDXDXDXDXDXDXDXDXDXpXV.G.H.5 i.w.r.9.9.r.9.w.i.F.Y.@ '.DXDXDXDXDXDXDXDXDXDXDXDXDXDXDXDXDXDXDXDXDXDXDXDX",
"DXDXDXDXDXDXDXDXDXDXDXDXDXDXDXDXDXDXDXDXDXDXaXV.3 u t o.q.l.x.: q.c.r.+.u H.. '.DXDXDXDXDXDXDXDXDXDXDXDXDXDXDXDXDXDXDXDXDXDXDXDX",
"DXDXDXDXDXDXDXDXDXDXDXDXDXDXDXDXDXDXDXDXDXDXgXZ.A.4 z.q., < = + @ ^ ) u a i   |.DXDXDXDXDXDXDXDXDXDXDXDXDXDXDXDXDXDXDXDXDXDXDXDX",
"DXDXDXDXDXDXDXDXDXDXDXDXDXDXDXDXDXDXDXDXDXDXnXN.6 , 7.7., $ + = O 7.^ 9 a f.  %XDXDXDXDXDXDXDXDXDXDXDXDXDXDXDXDXDXDXDXDXDXDXDXDX",
"DXDXDXDXDXDXDXDXDXDXDXDXDXDXDXDXDXDXDXDXDXDXpXB.i 1 , + # O = 8.: 8.> < +.f.% dXDXDXDXDXDXDXDXDXDXDXDXDXDXDXDXDXDXDXDXDXDXDXDXDX",
"DXDXDXDXDXDXDXDXDXDXDXDXDXDXDXDXDXDXDXDXDXDXhXW.'.W.s w O + > t.y.s.: u.$.v.8.hXDXAXDXDXDXDXDXDXDXDXDXDXDXDXDXDXDXDXDXDXDXDXDXDX",
"DXDXDXDXDXDXDXDXDXDXDXDXDXDXDXDXDXDXDXDXDXDXkX!.u dX(.}.}.9 ; y y h.t f.~.f.& lXDXDXDXDXDXDXDXDXDXDXDXDXDXDXDXDXDXDXDXDXDXDXDXDX",
"DXDXDXDXDXDXDXDXDXDXDXDXDXDXDXDXDXDXDXDXDXDXkX(.6.dXdX}.dXp > < ; h.t.;X~.p ( bXDXDXDXDXDXDXDXDXDXDXDXDXDXDXDXDXDXDXDXDXDXDXDXDX",
"DXDXDXDXDXDXDXDXDXDXDXDXDXDXDXDXDXDXDXDXAXDXkXp H.s Q.}.p r ; z.z.7.x.3X;Xx.z.BXDXAXDXDXDXDXDXDXDXDXDXDXDXDXDXDXDXDXDXDXDXDXDXDX",
"DXDXDXDXDXDXDXDXDXDXDXDXDXDXDXDXDXDXDXDXDXDXlX. s Q.r p   o X 8.8.= X.#.+Xx.y.VXDXDXDXDXDXDXDXDXDXDXDXDXDXDXDXDXDXDXDXDXDXDXDXDX",
"DXDXDXDXDXDXDXDXDXDXDXDXDXDXDXDXDXDXDXDXDXDXcX= '.!.%X'.!.'.].* & f l >.{ l z CXDXDXDXDXDXDXDXDXDXDXDXDXDXDXDXDXDXDXDXDXDXDXDXDX",
"DXDXDXDXDXDXDXDXDXDXDXDXDXDXDXDXDXDXDXDXDXDXVX0 _._.dXyX}.hX%X .^ / ` 5.3.I [ CXDXDXDXDXDXDXDXDXDXDXDXDXDXDXDXDXDXDXDXDXDXDXDXDX",
"DXDXDXDXDXDXDXDXDXDXDXDXDXDXDXDXDXDXDXDXDXDXVX- a @.@.!.].'.^.v ~ ` ` 4.p.' %.AXDXDXDXDXDXDXDXDXDXDXDXDXDXDXDXDXDXDXDXDXDXDXDXDX",
"DXDXDXDXDXDXDXDXDXDXDXDXDXDXDXDXDXDXDXDXDXDXZXO.l f d d d g g M M M P <.| j %.SXDXDXDXDXDXDXDXDXDXDXDXDXDXDXDXDXDXDXDXDXDXDXDXDX",
"DXDXDXDXDXDXDXDXDXDXDXDXDXDXDXDXDXDXDXDXDXDXSX#.v c z z J I B M m S Q <.T $ >.SXDXDXDXDXDXDXDXDXDXDXDXDXDXDXDXDXDXDXDXDXDXDXDXDX",
"DXDXDXDXDXDXDXDXDXDXDXDXDXDXDXDXDXDXDXDXDXDXSX1.U c M B B n n m V S W <.- & 3.SXDXDXDXDXDXDXDXDXDXDXDXDXDXDXDXDXDXDXDXDXDXDXDXDX",
"DXDXDXDXDXDXDXDXDXDXDXDXDXDXDXDXDXDXDXDXDXDXSX5.J Y m S m =.G C m S | >.$ b 5.DXAXDXDXDXDXDXDXDXDXDXDXDXDXDXDXDXDXDXDXDXDXDXDXDX",
"DXDXDXDXDXDXDXDXDXDXDXDXDXDXDXDXDXDXDXDXDXDXAX.XW Q m _ j.:Xg.m F C [ w x m 5.DXDXDXDXDXDXDXDXDXDXDXDXDXDXDXDXDXDXDXDXDXDXDXDXDX",
"DXDXDXDXDXDXDXDXDXDXDXDXDXDXDXDXDXDXDXDXDXDXDX#X! ! m d.M.8X7X' C ' a r Y C 5.SXDXDXDXDXDXDXDXDXDXDXDXDXDXDXDXDXDXDXDXDXDXDXDXDX",
"DXDXDXDXDXDXDXDXDXDXDXDXDXDXDXDXDXDXDXDXDXDXDX-XD P R d.M.8X2Xj.V  X^.N E m 5.DXDXDXDXDXDXDXDXDXDXDXDXDXDXDXDXDXDXDXDXDXDXDXDXDX",
"DXDXDXDXDXDXDXDXDXDXDXDXDXDXDXDXDXDXDXDXDXDXAX-XP P ' w.,X4X>Xj.>.W.;.W E V .XDXDXDXDXDXDXDXDXDXDXDXDXDXDXDXDXDXDXDXDXDXDXDXDXDX",
"DXDXDXDXDXDXDXDXDXDXDXDXDXDXDXDXDXDXDXDXDXDXDX-XA ! R a.>X>XM.1X(.$.*.E E m XXDXDXDXDXDXDXDXDXDXDXDXDXDXDXDXDXDXDXDXDXDXDXDXDXDX",
"DXDXDXDXDXDXDXDXDXDXDXDXDXDXDXDXDXDXDXDXDXDXDX*XA ! D a.b.M.>X|._.:.*.L } V #XDXDXDXDXDXDXDXDXDXDXDXDXDXDXDXDXDXDXDXDXDXDXDXDXDX",
"DXDXDXDXDXDXDXDXDXDXDXDXDXDXDXDXDXDXDXDXDXDXDXOXD ! D ' b.M.5X<Xm.2Xk.K } V &XDXDXDXDXDXDXDXDXDXDXDXDXDXDXDXDXDXDXDXDXDXDXDXDXDX",
"DXDXDXDXDXDXDXDXDXDXDXDXDXDXDXDXDXDXDXDXDXDXDXOXP D g.j._ @X5X>X4X6X1X=.E C -XDXDXDXDXDXDXDXDXDXDXDXDXDXDXDXDXDXDXDXDXDXDXDXDXDX",
"DXDXDXDXDXDXDXDXDXDXDXDXDXDXDXDXDXDXDXDXDXAXDX*XA P a.d.F `.5X>X7X2Xm.j.} C zXDXDXDXDXDXDXDXDXDXDXDXDXDXDXDXDXDXDXDXDXDXDXDXDXDX",
"DXDXDXDXDXDXDXDXDXDXDXDXDXDXDXDXDXDXDXDXDXAXDX-XA ! ' G 2.2.<X>X,Xm.b.,X:.C xXDXDXDXDXDXDXDXDXDXDXDXDXDXDXDXDXDXDXDXDXDXDXDXDXDX",
"DXDXDXDXDXDXDXDXDXDXDXDXDXDXDXDXDXDXDXDXDXSXDXvXZ | D N T n @X4Xb.b.b.,Xk.C vXDXDXDXDXDXDXDXDXDXDXDXDXDXDXDXDXDXDXDXDXDXDXDXDXDX",
"DXDXDXDXDXDXDXDXDXDXDXDXDXDXDXDXDXDXDXDXDXAXDXxXZ ! L K S n p.M.M.,Xm.,X2XS CXDXDXDXDXDXDXDXDXDXDXDXDXDXDXDXDXDXDXDXDXDXDXDXDXDX",
"DXDXDXDXDXDXDXDXDXDXDXDXDXDXDXDXDXDXDXDXDXSXDX-XA | W L K n h p.b.,X:X4X6XQ CXDXDXDXDXDXDXDXDXDXDXDXDXDXDXDXDXDXDXDXDXDXDXDXDXDX",
"DXDXDXDXDXDXDXDXDXDXDXDXDXDXDXDXDXDXDXDXDXDXDX#XZ P L L S n k h.m.2X2X7X5X} SXDXDXDXDXDXDXDXDXDXDXDXDXDXDXDXDXDXDXDXDXDXDXDXDXDX",
"DXDXDXDXDXDXDXDXDXDXDXDXDXDXDXDXDXDXDXDXAXAXDX#X4.4.,.*.-.H k h.n.2X,X6Xg.K SXDXDXDXDXDXDXDXDXDXDXDXDXDXDXDXDXDXDXDXDXDXDXDXDXDX",
"DXDXDXDXDXDXDXDXDXDXDXDXDXDXDXDXDXDXDXDXDXAXDX*XXX.X5.oX.X>.k.m.:X6Xk.4.-.%XDXDXDXDXDXDXDXDXDXDXDXDXDXDXDXDXDXDXDXDXDXDXDXDXDXDX",
"DXDXDXDXDXDXDXDXDXDXDXDXDXDXDXDXDXDXDXDXDXDXSX#X&X5..XoX.Xg.,X:X:X@X*.*.zXDXDXDXDXDXDXDXDXDXDXDXDXDXDXDXDXDXDXDXDXDXDXDXDXDXDXDX",
"DXDXDXDXDXDXDXDXDXDXDXDXDXDXDXDXDXDXDXDXAXAXDXXX4.oXoX&X&X&X2X1X2X:.V oXBXCXDXDXDXDXDXDXDXDXDXDXDXDXDXDXDXDXDXDXDXDXDXDXDXDXDXDX",
"DXDXDXDXDXDXDXDXDXDXDXDXDXDXDXDXDXDXDXDXDXDXSXXX.XE K H } =.2X7X:XH 5.cXcXBXAXDXDXDXDXDXDXDXDXDXDXDXDXDXDXDXDXDXDXDXDXDXDXDXDXDX",
"DXDXDXDXDXDXDXDXDXDXDXDXDXDXDXDXDXDXDXDXDXDXSX*X&X,.P <.T.K g.@X=.m cXcXzXBXAXDXDXDXDXDXDXDXDXDXDXDXDXDXDXDXDXDXDXDXDXDXDXDXDXDX",
"DXDXDXDXDXDXDXDXDXDXDXDXDXDXDXDXDXDXDXDXSXAXDX-XoX-.A T.&X4.m K C 5.VXzXcX=XvXDXDXDXDXDXDXDXDXDXDXDXDXDXDXDXDXDXDXDXDXDXDXDXDXDX",
"DXDXDXDXDXDXDXDXDXDXDXDXDXDXDXDXDXDXDXDXDXDXSXXX,.,.} 1.T.,.Y } m .XZXNXVX-.vXDXDXDXDXDXDXDXDXDXDXDXDXDXDXDXDXDXDXDXDXDXDXDXDXDX",
"DXDXDXDXDXDXDXDXDXDXDXDXDXDXDXDXDXDXDXDXAXDXvXW E E [ &.<.,.J U J &.sXzX5.m xXDXDXDXDXDXDXDXDXDXDXDXDXDXDXDXDXDXDXDXDXDXDXDXDXDX",
"DXDXDXDXDXDXDXDXDXDXDXDXDXDXDXDXDXDXDXDXAXDXxX*.Q Y J H M h j h M n n M m H *XDXDXDXDXDXDXDXDXDXDXDXDXDXDXDXDXDXDXDXDXDXDXDXDXDX",
"DXDXDXDXDXDXDXDXDXDXDXDXDXDXDXDXDXDXDXDXDXSX4.-.c c x l & % x ....%.I J T H oXDXDXDXDXDXDXDXDXDXDXDXDXDXDXDXDXDXDXDXDXDXDXDXDXDX",
"DXDXDXDXDXDXDXDXDXDXDXDXDXDXDXDXDXDXDXAXDXAX$X% . . o % t & ~.{.].Y. .] l g ,.CXDXDXDXDXDXDXDXDXDXDXDXDXDXDXDXDXDXDXDXDXDXDXDXDX",
"DXDXDXDXDXDXDXDXDXDXDXDXDXDXDXDXDXDXDXDXAXDXDXcXjX%X$X%X%X].%X`.~.$.@.@.+.+.#.zXDXDXDXDXDXDXDXDXDXDXDXDXDXDXDXDXDXDXDXDXDXDXDXDX",
"DXDXDXDXDXDXDXDXDXDXDXDXDXDXDXDXDXDXDXDXAXDXDXDXDXDXSXSXSXVXMXBXBXBXcXcXcXBXSXDXDXDXDXDXDXDXDXDXDXDXDXDXDXDXDXDXDXDXDXDXDXDXDXDX",
"DXDXDXDXDXDXDXDXDXDXDXDXDXDXDXDXDXDXDXDXDXSXDXDXDXSXAXDXAXDXDXSXAXDXAXAXSXDXAXDXAXDXDXDXDXDXDXDXDXDXDXDXDXDXDXDXDXDXDXDXDXDXDXDX",
"DXDXDXDXDXDXDXDXDXDXDXDXDXDXDXDXDXDXDXDXDXDXAXDXDXAXDXAXDXAXAXDXDXAXDXAXDXAXDXAXDXDXDXDXDXDXDXDXDXDXDXDXDXDXDXDXDXDXDXDXDXDXDXDX",
"DXDXDXDXDXDXDXDXDXDXDXDXDXDXDXDXDXDXDXDXDXDXDXDXDXDXDXDXAXDXDXDXAXDXSXDXDXDXAXDXDXDXAXDXDXDXDXDXDXDXDXDXDXDXDXDXDXDXDXDXDXDXDXDX"
};
