/* XPM */
static char *_638083152033[] = {
/* columns rows colors chars-per-pixel */
"64 64 218 2 ",
"   c #141B00",
".  c #1F1B00",
"X  c #18130A",
"o  c #2C0F00",
"O  c #3B0003",
"+  c #310B01",
"@  c #3A030A",
"#  c #2C1400",
"$  c #241D00",
"%  c #2E1B00",
"&  c #361301",
"*  c #3C1500",
"=  c #361E00",
"-  c #3A1E01",
";  c #3A1717",
":  c #122400",
">  c #1A2300",
",  c #142E00",
"<  c #1D2B00",
"1  c #1F2F0B",
"2  c #0C3500",
"3  c #123900",
"4  c #242300",
"5  c #2A2A00",
"6  c #282B06",
"7  c #342400",
"8  c #342802",
"9  c #253407",
"0  c #393703",
"q  c #292C1A",
"w  c #353C1B",
"e  c #361E23",
"r  c #342329",
"t  c #3C3B3A",
"y  c #2D2C32",
"u  c #420003",
"i  c #4A0000",
"p  c #46010A",
"a  c #4A0D06",
"s  c #510202",
"d  c #5F110F",
"f  c #400612",
"g  c #450B1A",
"h  c #5B0917",
"j  c #421A19",
"k  c #59191A",
"l  c #690308",
"z  c #6B1519",
"x  c #731319",
"c  c #422005",
"v  c #552617",
"b  c #513213",
"n  c #4D2413",
"m  c #62251B",
"M  c #662414",
"N  c #4B1E23",
"B  c #5A1D29",
"V  c #781A25",
"C  c #6C1D23",
"Z  c #44212B",
"A  c #562224",
"S  c #59242E",
"D  c #692826",
"F  c #7F232B",
"G  c #742929",
"H  c #6A3B26",
"J  c #682935",
"K  c #792832",
"L  c #77343A",
"P  c #713631",
"I  c #2F4800",
"U  c #314500",
"Y  c #2F5400",
"T  c #365207",
"R  c #3D422B",
"E  c #4C5B00",
"W  c #445E05",
"Q  c #595A06",
"!  c #565412",
"~  c #4B6209",
"^  c #526304",
"/  c #5C6C00",
"(  c #497100",
")  c #587603",
"_  c #4B601D",
"`  c #646E18",
"'  c #48493D",
"]  c #4E513C",
"[  c #5F7932",
"{  c #6A772F",
"}  c #4A3E40",
"|  c #7D3947",
" . c #6E3643",
".. c #464546",
"X. c #52534E",
"o. c #525A45",
"O. c #524F58",
"+. c #4D5150",
"@. c #575957",
"#. c #584A4A",
"$. c #5F605A",
"%. c #811F1E",
"&. c #892B2B",
"*. c #89262C",
"=. c #872A34",
"-. c #992C3A",
";. c #972533",
":. c #88363B",
">. c #92323B",
",. c #9D3C3B",
"<. c #99323A",
"1. c #912822",
"2. c #A22C35",
"3. c #B52E3F",
"4. c #A3353E",
"5. c #A6393F",
"6. c #B0403E",
"7. c #922C41",
"8. c #893747",
"9. c #9C3D43",
"0. c #983746",
"q. c #A93844",
"w. c #B83E49",
"e. c #BF3E50",
"r. c #A92B40",
"t. c #C23E53",
"y. c #A64749",
"u. c #B74948",
"i. c #B44A53",
"p. c #BC4953",
"a. c #B95357",
"s. c #AA5059",
"d. c #BE5966",
"f. c #CA4A4B",
"g. c #D0504D",
"h. c #C74A55",
"j. c #D14B53",
"k. c #D34553",
"l. c #CF585A",
"z. c #C55457",
"x. c #D25450",
"c. c #DF645F",
"v. c #C3645E",
"b. c #C65F63",
"n. c #CA6265",
"m. c #D96869",
"M. c #D77677",
"N. c #E16D6E",
"B. c #E97C74",
"V. c #5D9D00",
"C. c #5F9300",
"Z. c #649600",
"A. c #669A00",
"S. c #6A9E01",
"D. c #68950B",
"F. c #6C9C0C",
"G. c #67930C",
"H. c #719E01",
"J. c #739D0A",
"K. c #799E0A",
"L. c #719504",
"P. c #6C8A12",
"I. c #6A891A",
"U. c #708F18",
"Y. c #699519",
"T. c #739C13",
"R. c #76981A",
"E. c #5FA100",
"W. c #65A301",
"Q. c #6DA201",
"!. c #64AB00",
"~. c #6CAA02",
"^. c #6DA409",
"/. c #6FA80A",
"(. c #67A408",
"). c #71A503",
"_. c #79A605",
"`. c #74AA04",
"'. c #79AD06",
"]. c #72A30A",
"[. c #76AC09",
"{. c #79AE0A",
"}. c #7AA50D",
"|. c #66B200",
" X c #79B206",
".X c #7BB10B",
"XX c #6FA711",
"oX c #72A313",
"OX c #7CA414",
"+X c #7CAB12",
"@X c #76A21B",
"#X c #7AA31A",
"$X c #7CAC1F",
"%X c #7CB212",
"&X c #74B211",
"*X c #6A8A28",
"=X c #718E22",
"-X c #73822F",
";X c #799424",
":X c #769A27",
">X c #769735",
",X c #73922D",
"<X c #7BA220",
"1X c #78A03D",
"2X c #798A43",
"3X c #81AE0D",
"4X c #82AA15",
"5X c #82B115",
"6X c #819D28",
"7X c #839239",
"8X c #EB8078",
"9X c #C97B82",
"0X c #DF7B85",
"qX c #F07F83",
"wX c #EF908E",
"eX c #F7939B",
"rX c #FFA099",
"tX c #FF98A1",
/* pixels */
").S.S.S.Q.).).).Q.S.).).Q.`.'. X~.Q.Q.Q.Q.S.S.W.^.).).S.S.S.Q.).].S.Z.Z.S.H.S.S.S.).`.`.).Q.Q.).{.[.`.S.).Q.Q.Q.Q.Q.).).).).A.S.",
"^.).Q.S.Q.Q.Q.Q.Q.S.Q.Q.S.`.'.'.~.Q.Q.~.Q.Q.Q.~.S.).).).Q.Q.Q.).^.S.A.S.S.].S.S.Q.).Q.S.).).S.).`.`._.`.Q.Q.`.`.).).Q.Q.S.S.S.S.",
"F.).).).Q.S.S.Q.).^.S.S.S.).`.`.[.[.).Q.[.&X~.Q.S.).Q.Q.Q.Q.Q.Q.Q.S.S.).).S.^.S.Q.S.A.S.S.).).).H.).{.[.).).{.{.`.).S.S.S.^.).).",
"^.^.).S.S.S.S.Q.Q.).Q.S.).).S.).[.{.`.).{.{.Q.Q.Q.Q.).Q.Q.).).~.Q.S.).`.S.S.).Q.Q.S.A.A.Q.).).Q.S.).{.[.).).{.[.).Q.S.S.S.S.S.).",
"S.S.S.S.S.S.Q.Q.S.].S.S.).).S.S.).`.).Q.[.).S.A.Q.Q.S.S.Q.~.[. X).Q.).).Q.S.).Q.).).S.S.^.).^.Q.S.S.).`.Q.).[.].Q.S.S.).).S.S.).",
"S.S.S.S.S.Q.).].].).H.S.Q.S.Q.S.S.S.S.Q.^.S.Z.Z.Q.Q.W.S.Q.`.[..X).Q.Q.).).Q.).S.Q.Q.S.S.S.Q.Q.).Q.S.Q.).S.).).S.S.S.).).`.).Q.S.",
"S.S.Q.).).).`.{.].Q.S.^.Q.S.).S.A.S.S.).Q.S.A.A.Q.Q.Q.S.Q.`.'..X`.).S.).`.`.).S.S.).).S.).S.Q.).Q.).Q.Q.S.).^.Q.S.S.Q.`.'.'.).Q.",
"S.Q.).).).`._.{.).^.).).S.Q.).Q.A.S.Q.).Q.A.A.S.W.Q.Q.W.W.Q.`.'.).Q.S.).{.{.).S.).`.).).).S.Q.Q.Q.).Q.S.S.F.S.J.A.A.S.`..X X'.).",
"S.`.'..X X_.`.S.Q.Q.Q.Q.Q.Q.Q.S.S.).Q.Q.Q.S.S.).S.~.Q.Q.Q.~.`.Q.S.S.).Q.).).Q.).`.{.{.{.`.Q.S.Q.H.S.S.A.S.^.S.S.S.S.S.)._..X X X",
"Q.`..X.X'.`.).Q.).).S.Q.).).`.`.`.).).S.Q.S.Q.).).Q.~.Q.Q.Q.Q.Q.S.Q.S.S.].).^.).`.{.3X{.`.Q.Q.Q.Q.S.A.A.S.S.J.S.^.H.S.).'.'. X3X",
"Q.`..X.X'.).).).).).S.S.Q.`.'.{.{.{.).Q.Q.Q.).).+X{.`.~.Q.Q.Q.Q.).^.A.S.S.).).S.).`..X X`.Q.`.'.).S.A.A.A.S.S.^.A.A.S.).).`. X3X",
").`.{.'.`.).Q.Q.S.S.S.Q.Q.).'.3X.X.X[.~.Q.).).].&X[.Q.Q.Q.~.Q.S.H.F.Z.Z.S.).S.Q.S.).`._.'._.'. X).Q.S.S.S.S.^.H.A.S.S.S.).).`. X",
"S.).).).).).S.S.Z.S.S.^.Q.Q.).'. X X.X[.~.Q.{.{.[.Q.S.A.S.S.^.^.^.S.Z.Z.S.S.Q.S.Q.Q.).`.`.`.).Q.Q.Q.S.Q.Q.).Q.).S.S.).).Q.).Q.Q.",
").).S.S.Q.^.S.S.A.A.S.^.S.S.Q.Q.`. X%X X).Q.&X.X].S.Z.Z.S.^.).Q.S.S.A.S.S.H.Q.Q.).Q.Q.).[.`.Q.S.S.S.Q.).).S.Q.Q.Q.S.Q.).).Q.S.S.",
").S.S.S.S.].^.F.Z.A.A.J.^.S.S.Q.Q.`. X XQ.Q.{.%X).A.Z.A.S.].).S.S.Q.S.S.S.S.S.Q.Q.S.Q.).].].).Q.).S.Q.Q.).).).S.Q.S.S.S.S.).Q.^.",
"].S.A.A.S.).).H.Z.Z.S.S.).Q.Q.Q.W.Q..X`.Q.Q.[.{.).S.Z.A.J.J.S.S.).^.).S.^.S.S.Q.Q.).Q.^.).S.).].).).S.Q.S.Q.).).`.`.S.S.S.S.S.).",
"S.S.S.).S.S.).].S.A.W.Q.Q.Q.S.S.W.S.H.Q.S.W.).).).S.S.S.S.L.Z.Z.Q.Q.S.S.).).).Q.S.(.A.(./.F.L.S.Q.`.`.`.).Q.Q.`.{.{.).Q.S.Q.S.S.",
"S.Q.Q.).S.S.S.).Q.~.Q.~.Q.Q.W.Q.W.S.S.S.Q.S.).).).Q.Q.S.L.S.S.A.Q.Q.Q.).S.)._.S.C.C.F.Q.S.S.).).Q.`.'._.`.).).).{.[.).).).).Q.Q.",
").).S.S.S.).S.Q.[..X X`.~.Q.Q.~.Q.Q.S.S.Q.Q.H.S.Q.Q.W.Q.S.S.S.S.(.W.`.H._.H.S.S.Z.C.Q.).).).).H.).).).`.{.{.Q.Q.).).).).).).Q.Q.",
").S.S.S.S.S.Q.Q.[. X X X'.~.Q.Q.~.`.).S.~.Q.S.Q.^.~.W.W.^.Q.Q.W.S.{._.).H.).F.Y.F.A.A.S.`.).).S.).).Q.).{.{.).S.S.S.S.).Q.Q.).).",
"H.Z.A.A.S.H.^.).~.`. X X X`.Q.Q.'.'.).)./.~.Q.Q.Q.Q.~.(.Q.Q.Q.~.Q.OX].5X`.J.:X<XF.].S.Q.Q.Q.Q.S.Q.).).).`.Q.Q.).).Q.Q.Q.S.Q.).Q.",
"S.A.Z.Z.S.S.).Q.Q.Q.`. X X X`.`.'._._.Q.Q.!.Q.Q.).Q.S.(.Q.Q.~.Q.).).5X}.{.D.2 3 ( G.).Q.S.Q.Q.S.Q.).Q.Q.).).Q.Q.S.S.S.S.S.Q.Q.).",
"S.A.A.A.A.).Q.).Q.~.~.`. X X.X'.'._.~.Q.Q.W.Q.~.Q.).H.).Q.Q.).).).Q.). X`.#X*X3 , T F.H.Q.Q.Q.W.`.Q.S.S.Q.`.^.S.S.A.S.S.Q.S.Q.).",
"F.S.S.S.F.S.).S.Q.Q.Q.~.`. X.X.X).Q.Q.Q.S.Q.~.Q.).`.).).F.J.oX@XT.F.^.J.Y.*X[ 1 X 1 ;XK.).Q.W.W.Q.Q.S.S.Q.].S.S.A.A.S.Q.).).).S.",
"^.^.S.A.S.(.Q.Q.Q.Q.Q.Q.S.H.].].Q.Q.Q.Q.Q.Q.Q.)..X).).J.Y.=X1X>X,X*X=X>X_     t y q 2XI.J.S.^.F.S.A.A.A.S.Q.).Q.Q.S.S.Q.).^.Q.).",
").Q.Q.S.S.S.Q.Q.S.S.S.Q.S.A.^.Q.Q.Q.Q.Q.].S.).).+XOXR.:X~ > 5 > $ 4 $ $ q ' t ..O.X.4 < ) T.oX^.).S.A.S.S.Q.Q.Q.Q.).`.].).Q.Q.S.",
"Q.W.S.S.Q.Q.Q.Q.S.S.Q.Q.S.A.L.Z.Q.).^.J.H.].].).J.R.U b b H M G G G v 8 e t t +.X.$.]   5 ~ @X}.].S.S.S.S.S.Q.).S.`.{.{.`.Q.S.S.",
"Q.Q.S.W././.Q.Q.Q.Q.).`.S.S.Z.C.H.S.].].S.].S.J.P.` 5 ; v G :.>.5.<.V B N y t +.X.X.] w < I <X+X].`.`.).Q.S.Q.).)._.%X{.).S.S.).",
"Q.Q.Q.~.[.[.~.Q.Q.Q.{.{.).S.A.Z.K.K.Q.!.~.).J.=X! & m 8.S @ + y.h.k.<.K Z Z } O.@.o.> 2XI Y ^.~._.[..X'.).Q.Q.`.'.{..X{.`.S.).Q.",
"Q.Q.Q.~.{.{.~.Q.Q.`..X{.).S.S.S.L.J.|.|.~.Q.Y.5 = D >.i.K u O M.N.j.p.,.J g e #...t : =X:X#X^.Q.'..X.X.X'.).).`..X.X{.`.).).Q.Q.",
"W.W.Q.Q.~.[.{..X).`.'. X`.Q.Q.S.J.Q.~.|.Q.#X7X7 v :.a.z.n.N.M.wXeXM.i.z z L J Z e 6 *XG.D./.Q.`.`.`.'..X X`.`.). X'._.`.).Q.S.Q.",
"Q.Q.Q.Q.Q.Q.[..X`.`.'.'.).Q.).Q.S.`.`. X`.T.! b v C V n.m.m.m.wXb.0.&.%.4.9.=.B e 6 I.D./.Q.Q.Q.Q.).`..X.X'.`.Q._.`.).S.S.).S.S.",
").Q.S.Q.Q.Q.Q.Q.Q.Q.~.Q.~.Q.S.S.Q.!.~.~. X6X$ P S @ f 9Xn.h.y.s.=.l l u.f.f.;.F N 4 U.S.A./.H.S.).Q.S.`.{.{.`.S.S.`.`.S.S.A.S.H.",
"^.Q.Q.Q.Q.Q.Q.S.~.Q.Q.S.^.Q.Q.Q.Q.~.Q.`..X:X=  .B p u 9Xm.y.s i V i.p.wXc.f.g.<.N 5 P.S.(.(.).H.).Q.S.).`.`.].).S.S.S.S.S.S.S.].",
").S.Q.S.Q.Q.Q.Q.Q.Q.A.A.S.S.S.^.`.).Q.).%XR.# L q.u.N.l.z.i.s i =.n.eXn.v.u.f.4.S 8 Y.(.Q.~.S.H.H.).).).).).).Q.).S.S.S.S.S.^.).",
").).S.S.Q.).`.`.~.Q.A.V.S.Q.S.).H.H.].].].6X7 L u.f.x.j.;.x 9.,.n.wXeXV d V 2.<.A 4 Y.E.Q.Q.)._.Q.Q.Q.).S.).Q.).).).Q.).`.).^.S.",
"Q.Q.Q.Q.Q.~.[.{.).Q.Q.Q.S.^.S.).S.`.Q.(.XX,X# K 4.3.x.6.*.V h.l.8XrXM.k O g 0.=.A 5 :XQ.Q.Q.).H.S.Q.).).).S.S.).).S.S.).).).S.A.",
"Q.Q.`.~.`.`..X{.Q.).Q.Q.].S.S.S.Q.`.W.W.XXU.8 m *.5.6.l *.d.w.M.8XN.a.h @ g 0.z c 0 T.Q.`.`.).S.S.S.S.S.^.S.S.S.S.).`.`.).S.S.A.",
"Q.Q.`..X[.`.`.`.).).Q.^.].S.A.Z.W.W.|.!.A.R.-X7 m L a y.h.w.p f 1.g.f.h.0.8.8.a Q P.}.)._.{.^./.H.S.H.S.S.A.S.S.).)._.[.).).S.S.",
"~.~..X.X.X'.Q.S.Q.S.S.S.^.S.A.Z.(.!.E.E.[.J.>X5 v L O :.e.i.p @ 1.j.k.3.r.>.D = E +XL._.3X.X~.Q./.^.^.S.A.A.S.S.S.`.[.[.`.).).`.",
" X.X&X X`.~.Q.Q.Q.S.S.S.).S.A.Z.^.F.S.Z.L.T.:X5 j J h :.q.y.h h ;.e.t.r.-.=.n 0 ) A.5X{._.H.Q.~.S.H.].S.A.A.S.).).Q.).`.[.{.`.H.",
" X X'.`.Q.Q.Q.~.S.Q.S.S.].S.S.S.H.S.A.Z.J.K.Y.I $ + | :.>.-.8.8.7.0.>.=.G n 7 >XD.).[._.).S.W.Q.S.^.S.S.Z.S.S.).).).S.).{.{.`.).",
".X.X`.~.Q.Q.Q.Q.Q.S.Q.Q.).Q.S.S.H._.^.A.S.S./.Y.~ > X H :.8.| 8.8.L v # X < :XY.].Q.).`.).S.Q.S.^.^.].^.S.S.S.S.S.S.S.`.{.{.`.Q.",
".X`.Q.Q.Q.Q.~.Q.).).Q.Q.].).Q.Q.)._.^.Q.).Q.W.XXP.*X7X0 & * + & & - $ { *XY.F.Q.^.Q.W.~.).H.).Q.Q.S.S.H.S.).S.S.S.S.Q.`.[.`.).S.",
"`.).Q.S.Q.Q.Q.Q.Q.Q.Q.~.[.'.Q.).`.S.S.Q._._.S.S.Q.XX<X) ^ ^ ^ E E Q / R.R.}.A.S.).S.E.W.Q.Q._.S.S.A.S.S.).).S.^.A.A.S.).`.).S.S.",
"S.S.Q.Q.`.Q.Q.Q.Q.Q.W.`..X X`.)._.Q.).Q.S.H._._.~.Q.+X+X$X<X@XT.T.4X4X4X).Q._.`.`.Q.W.W.^.].).S.A.S.S.S.Q.).).).A.S.S.).H.Q.S.Q.",
"S.).).Q.).).Q.Q.W.Q.Q.~.{.[.`.~. X`.~.W.S.^.F.S.S.H.].].[.%XF.(.&X/.].].S.Q.H.).H.).Q.Q.].].).S.).Q.Q.).Q.Q.).Q.S.S.S.).Q.Q.).Q.",
"S.S.S.^.S.S.Q.Q.S.Q.Q.~.[.[.Q.Q.{.'.[.W.F.S.D.J._.).).^.'.~./.(.&X/.].S.S.).H.L.H.`.`.Q.^.S.S.`.).).Q.).).).).^.).).S.S.^.).).Q.",
").Q.A.S.S.).A.Z.S.).).).).).S.S.).).Q.^.^.S.A.A.S.Q.S.^.Q.`./.(.Q.Q.Q.).).Q.H.).H.`..X X).Q.S.Q.Q.`.Q.Q..X[.~.Q.Q.Q.Q.Q.S.S.).).",
").S.S.S.^.F.Z.Z.S.S.).S.Q.Q.).S.S.S.S.).).Q.S.A.A.S.^.).(.Q.Q.Q.).).S.S.S.Q.).Q.Q.`.[._.`.`.).).Q.Q.~.`.&X{.`.Q.Q.Q.^.Q.S.S.Q.J.",
"S.).S.S.A.A.Z.Z.S.).).).S.Q.S.).Q.S.S.).Q.Q.S.Q.S.Q.Q.Q.Q.~.Q.Q.Q.S.A.A.S.S.S.).).).`.`.'.'.'.'.Q.Q.'..X%X.X~.Q.Q.).Q.S.A.A.S.].",
").).).S.S.S.A.S.).).).S.S.S.Q.).).).S.S.).).).).Q.Q.W.S.Q.Q.Q.Q.S.S.A.S.S.Q.).).Q.Q.Q.).`. X.X3X~.~..X%X{.`.Q.Q.).Q.Q.S.A.A.S.).",
").S.Q.S.Q.S.S.Q.).Q.).).S.S.).Q.S.S.).`.{.{.Q.Q.Q.Q.~.Q.Q.Q.Q.~.Q.S.S.S.S.].).).Q.Q.S.Q.).[.{.{.).`.{.%XQ.Q.Q.Q.S.Q.).Q.S.Q.S.S.",
"Q.).S.S.).].).).Q.).).`.).).`.).).S.S.`..X%X`.Q.~.Q.Q.Q.~.`.Q.Q.S.Q.Q.Q.Q.).^.S.S.S.S.S.S.`.[.[.Q.~.`.).W.A.W.Q.).Q.Q.).).Q.Q.S.",
").Q.Q.).{.[.).).).). X'.`.`.{.[.`.Q.Q.).{..X.X.X`.Q.Q.~.[.[.~.Q.Q.Q.Q.).Q.Q.Q.S.Q.S.S.A.S.).).).Q./.Q.W.Q.S.S.Q.).S.Q.S.S.Q.).Q.",
"Q.).).`.{.{.).Q.Q.`.3X'.).`.{.{.`.S.S.S.`..X%X.X~.Q.Q.`..X[.`.Q.Q.).).).).Q.S.S.).S.A.S.Q.).).Q.).Q.S.A.W.S.W.Q.S.).Q.).).).Q.).",
"Q.).{.{.).S.).S.).`.'. X{.'.`.).~.Q.S.Q.Q.`.{.{.`.].{.{.`.S.S.S.Q.`..X{.).Q.).S.).Q.Q.).Q.Q.).S.S.S.).Q.A.A.S.^.Q.`.{.&X~.Q.Q.Q.",
"`._..X.X).S.Q.).Q.Q.`. X.X'.`.S.Q.Q.S.W.Q./.[.`.Q.).{.{.).S.S.S.Q.`.'.'.`.`.`.`.`.).Q.).).`.).S.S.S.).S.A.A.Q.).Q.Q.[.[.[.Q.Q.W.",
"'. X{.'.).Q.Q.Q.Q.Q.).'..X_.).S.W.S.S.W.Q.^.Q.Q.S.Q.).].).S.S.A.Q.Q.`.`.'..X{.{.).Q.).`._.{.`.Q.).].].S.A.A.S.S.~.Q.`.`.{.[.`.Q.",
"3X X{.`.).Q.Q.).Q.Q.Q.).'.`.Q.S.A.S.S.A.Q.~.Q.S.Q.S.S.).].S.A.A.).Q.Q.).`. X3X3X).Q.)._.{.{.`.Q.^.S.).S.A.A.S.S.Q.Q.Q.`.{..X`.W.",
" X X`.).Q.S.Q.).).Q.).Q.Q.Q.Q.Q.S.Q.A.A.^.).Q.Q.Q.S.).).S.S.S.).Q.S.Q.).Q.`..X{.).`.[.{.`.).).S.S.A.Z.S.Q.Q.).).S.W.Q.~.{.{./.Q.",
" X'.).S.Q.S.S.).).Q.).Q.S.S.).).Q.Q.A.A.Q.~.).~.`.).).S.S.S.S.).S.S.Q.S.Q.).`.`.).`.[.[.).Q.Q.S.S.A.S.S.Q.Q.).^.Q.Q.Q.Q./.[.~.Q.",
").).Q.S.).Q.S.Q.Q.Q.Q.Q.S.S.Q.).W.W.S.Q.Q.Q.'.'.`.Q.S.S.S.Q.).S.S.Q.S.).S.Q.).).S.).).`.Q.S.S.Q.).S.).S.S.Q.Q.Q.Q.Q.Q.S.Q.W.Q.Q.",
"Q.).Q.).).).S.S.).S.Q.S.S.S.Q.Q.A.S.Q.~.Q.`.{.{.`.Q.Q.S.S.S.).).S.S.).).S.S.Q.Q.S.S.Q.Q.S.S.S.S.].).).).Q.S.Q.^.Q.Q.W.A.S.S.Q.~."
};
