/* XPM */
static char *_d646046266b4b82d7702afa57b37500pGn7li2kkIhnnxCN[] = {
/* columns rows colors chars-per-pixel */
"64 64 220 2 ",
"   c #010000",
".  c #0B0303",
"X  c #160402",
"o  c #140906",
"O  c #1D0A06",
"+  c #160C09",
"@  c #1B0D0A",
"#  c #1E110E",
"$  c #1A0F10",
"%  c #1E1311",
"&  c #250300",
"*  c #2C0400",
"=  c #230A06",
"-  c #2C0C06",
";  c #240D09",
":  c #2D0E09",
">  c #340600",
",  c #330D05",
"<  c #320E08",
"1  c #2F1007",
"2  c #23120C",
"3  c #2B120C",
"4  c #3C1306",
"5  c #351309",
"6  c #34130C",
"7  c #3B150C",
"8  c #3C180E",
"9  c #251412",
"0  c #2B1611",
"q  c #261A15",
"w  c #2C1A14",
"e  c #261C19",
"r  c #291D1A",
"t  c #331612",
"y  c #3A1711",
"u  c #341A14",
"i  c #3C1A13",
"p  c #351E19",
"a  c #3B1E18",
"s  c #2D211D",
"d  c #35231D",
"f  c #3C221C",
"g  c #372720",
"h  c #3B2421",
"j  c #3B2A22",
"k  c #490100",
"l  c #530100",
"z  c #5E0200",
"x  c #42170A",
"c  c #47170A",
"v  c #431B0D",
"b  c #581600",
"n  c #411710",
"m  c #431C14",
"M  c #4A1E14",
"N  c #441E18",
"B  c #541F12",
"V  c #5F2405",
"C  c #442016",
"Z  c #4B2116",
"A  c #44231C",
"S  c #4C241C",
"D  c #45281D",
"F  c #4D281E",
"G  c #522216",
"H  c #5B2313",
"J  c #53251B",
"K  c #59271A",
"L  c #54291D",
"P  c #5B2B1D",
"I  c #6A2806",
"U  c #662D1A",
"Y  c #77381A",
"T  c #442522",
"R  c #4B2621",
"E  c #432B25",
"W  c #4D2A23",
"Q  c #4E2D29",
"!  c #512720",
"~  c #532C24",
"^  c #5B2D23",
"/  c #532E29",
"(  c #592F29",
")  c #44332C",
"_  c #4F3029",
"`  c #553126",
"'  c #5C3225",
"]  c #55322B",
"[  c #5B342B",
"{  c #5D352A",
"}  c #5D382C",
"|  c #4D3A33",
" . c #553531",
".. c #5C3631",
"X. c #5D3A33",
"o. c #5C3C39",
"O. c #622F22",
"+. c #692F23",
"@. c #643224",
"#. c #6A3425",
"$. c #6B3825",
"%. c #63352B",
"&. c #6A362A",
"*. c #613A2D",
"=. c #643A2E",
"-. c #6B3A2D",
";. c #783925",
":. c #743B2C",
">. c #793D2B",
",. c #623631",
"<. c #643C33",
"1. c #6B3D33",
"2. c #623F39",
"3. c #683F38",
"4. c #723D32",
"5. c #7A3E32",
"6. c #5F4038",
"7. c #7D412D",
"8. c #644035",
"9. c #6D4135",
"0. c #65423B",
"q. c #6C443B",
"w. c #6E483F",
"e. c #734236",
"r. c #7A4235",
"t. c #74453A",
"y. c #7B4539",
"u. c #75493D",
"i. c #7B493C",
"p. c #594443",
"a. c #684945",
"s. c #754741",
"d. c #744B43",
"f. c #7B4D43",
"g. c #734F49",
"h. c #6D534E",
"j. c #7D5146",
"k. c #76524B",
"l. c #7B534B",
"z. c #7F584E",
"x. c #6B5958",
"c. c #7C5650",
"v. c #775B57",
"b. c #76615E",
"n. c #756664",
"m. c #756C6D",
"M. c #796A68",
"N. c #844228",
"B. c #824535",
"V. c #844836",
"C. c #844A3C",
"Z. c #8B4E3C",
"A. c #8A513F",
"S. c #844D41",
"D. c #845144",
"F. c #8A5344",
"G. c #82544A",
"H. c #89554A",
"J. c #85594E",
"K. c #8C5B4E",
"L. c #945948",
"P. c #925B4C",
"I. c #825B53",
"U. c #8D5D53",
"Y. c #955F52",
"T. c #8B6158",
"R. c #8C645C",
"E. c #956155",
"W. c #9A6256",
"Q. c #946359",
"!. c #926B62",
"~. c #887A78",
"^. c #A27367",
"/. c #A5837D",
"(. c #958D8D",
"). c #969799",
"_. c #A68883",
"`. c #AC928E",
"'. c #B8948C",
"]. c #AB9896",
"[. c #B09C97",
"{. c #BC9B94",
"}. c #BCA29D",
"|. c #9A9EA0",
" X c #A5A3A4",
".X c #A3A7A9",
"XX c #A6AAAC",
"oX c #A9ACAE",
"OX c #B9A8A5",
"+X c #ABAFB1",
"@X c #B0AFB0",
"#X c #AEB2B4",
"$X c #B1B4B6",
"%X c #BEB6B6",
"&X c #B3B7B9",
"*X c #B5BABC",
"=X c #B9BCBD",
"-X c #C39F96",
";X c #C3A39C",
":X c #C2AAA5",
">X c #BABEC1",
",X c #BDC2C4",
"<X c #BFC7CA",
"1X c #C1C5C6",
"2X c #C2C6C9",
"3X c #C5CACC",
"4X c #C9CCCE",
"5X c #CACFD1",
"6X c #CDD2D4",
"7X c #CED5D8",
"8X c #D1D5D6",
"9X c #D2D6D9",
"0X c #D5DADC",
"qX c #D9DDDE",
"wX c #D7DDE0",
"eX c #DADEE1",
"rX c #DCE1E4",
"tX c #DDE4E8",
"yX c #E2E7E9",
"uX c #E3E8EA",
/* pixels */
"a.Q  . ./ / / Q Q Q Q Q T Q Q Q ~ W W ~ Q R W ~ / ~ / ] ` { { ` { %.} 8.$.} 8.8.8.8.8.} 8.{ 8.` ` 6.D ` ` ` { ' ' ' ' ' ' ` ' 7.",
"o.* - < - < : - - - < < < 7 < * - < < < < < < 4 6 5 5 7 7 i 6 a F 6 5 5 1 6 5 5 5 u 5 8 8 8 8 i i i 8 u u 8 8 d f f 8 d w o   $.",
"..7 N / R / ~ W ~ ~ ~ / ( / / ! ! ~ ^ ~ ~ ^ ( ~ ~ ^ ^ ^ @.@.D ~ 8.L ' ' L L L F ` L ` ~ ` ` ` L ` ` ` ` ` ` ' ` $.` D D D 2 # 8.",
"..4 R .. ./ / / / / / [ [ ( [ [ { ] { %.{ { ( { { { %.{ -.e.` ` e.*.8.=.6.} ' 8.} ' } } { { { 8.' { 8.8.*.*.*.*.' ` ` ` D 2 # $.",
"..7 ( ../ T R R Q R Q R R ! ! ~ ~ ~ W ~ ( ( ~ ~ ~ ~ ~ ( %.1.` %.7.8.9.{ ` L ` ` ` ` ` ` ` ` ` ` } ' ' ` ` } { ` } D ` } { 2 2 7.",
"X.n ( ,.Q [ [ T N A N N N T S T A S A C C ~ ~ ! L F a ] <.r.%.=.i.8.7.*.8.6.f D F D W D W D F F D ` D ` ` ) ` ) E d ` 8.8.2 2 9.",
"..c ( ,.Q %.1.R / ..1.1.1.,.,.1.-.1.1.9.9.1.<.%.] ` D [ 4.y.=.=.i.9.e.8.u.9.D { } } } 8.9.8.8.9.9.e.9.8.8.8.$.8.} d $.9.8.w w e.",
"<.v ( [ R ,.1.[ ,.1.3.3.t.1.1.4.t.t.9.1.{ ` S F ~ Q A %.r.y.=.-.V.9.e.9.8.} | ` F ` ' ' } 8.t.t.u.u.i.9.9.e.9.9.8.d 8.e.8.d d j.",
"<.c ^ ,./ <.4.[ 2.1.3.3.i.t.,.t.9.` R S L ] X.o.<.{ ] 1.r.C.=.9.A.9.e.e.8.8.Y 8.8.0.} ` ` ] } 8.i.i.u.t.t.t.e.e.8.i 8.i.w.f d J.",
"3.m ( 1.[ 3.t.[ 1.s.4.t.i.4.3.,.R A ` X.0.P l z b Z ` i.C.C.-.9.A.9.i.8.i.z.h.$.l z $.q.6._ ` } 8.u.i.u.i.t.u.u.8.D t.j.w.E j T.",
"3.M ~ ,./ t.i.[ 1.i.t.t.t.t.R R P ] X.I z l.`..X%X3Xx.-.F.Z.e.1.A.e.i.8.Y [.7X&X$X(.a.k I w.} { 8.` 8.i.t.e.u.i.8.D u.z.d.E ) R.",
"9.G R ,.[ s.S.[ 3.s.1.s.3.a ! / X.$.I ~.=X0XwX4X3X7Xb.:.F.Z.1.3.K.e.i.8.Y [.0X,X7XwX0X*Xm.l $.0.` 8.{ { i.8.t.j.q.f u.J.g.D ) R.",
"9.J R ,.[ t.f.[ 1.t.q.s.T / / o.;.T.%XrX0X8XeX0X5X9Xx.r.F.S.-.t.P.9.i.8.Y [.rX6XuXeX4XqXrX*Xh.V w.} 8.{ [ q.u.D.u.h u.J.k.j E R.",
"9.J R [ / s.f.[ <.t.s.a ,...3.N._.0XtX9X3X2XrXtX6XwXn.7.F.C.&.4.L.e.u.8.7.}.wX6XuX5X4X6X8XyX7Xn.k u._ 6.} } u.j.d.f f.J.k.f d Q.",
"u.J R %./ s.S.[ 3.G.Q ] <.2.Z.].7X3X8X9X0X0X6X6X6XrXn.;.H.C.,.t.P.e.e.8.7.:XyX3X5X7XeX6X0X3X1XeX/.k w._ w.] 9.D.g.T f.U.l.d d E.",
"t.L ! ..[ f.l./ S.q.R 2.o.F._.eX3X&X0X,X1X0XrX3X,XqXM.>.S.C.-.t.P.u.i.6.N.:X0X*X9XeX5X,X4X0X@X8XwXb.V q.] u.` J.l.f u.J.l.a d K.",
"y.P W %.] f.l.{ j.] 2. .f.^.6X9X%X8XwX8X8X1X8XwX2X6XM.5.S.C.,.4.L.i.t.X.V.}.9X1XqX1X5XqX8XeX4X=XwX<X4 q.[ d.3.u.l.f q.I.l.0 f U.",
"i.P W %.( j.G.9.q.] <.a.P.OXeX2X9X6X5X0XeX0X5X3X6XeXM.5.S.y.%.3.P.i.r.o.N.:XtX1X3X6XrXeX8X5X9X6X<XtX~.b a.8.d.q.z.h 9.I.l.9 p U.",
"S.P P <.~ j.I.9. ... .j.^.4X0X6XqXwX1X3XeXwXwX>X2XeXM.5.S.B.( 3.P.C.i.o.V.;XrX*X4XeXeX8X=X8XqXqX6XrX#Xk l.<.k.9.g.h 3.z.g.@ p J.",
"i.^ W -./ l.U.] R 2. .H./.qX8X0X8XyX0X&X>X5XeX8X4XwXb.5.S.B.^ 4.W.i.C.8.V.}.rX3X0X9X1X$X1XyXqX9X6X0X3XQ j.0.w.0. .d ..l.g.O w J.",
"i.^ R %.[ ] ] ] / ..| H.`.7X4X0X4X0X0X8X5X%X>X2X5X6Xx.5.C.C.^ s.W.r.y.<.Z.[.7X2X,X*X,X8X8X0X4X8X6X3X,Xp.u.a.o.8.[ ] ..k.g.+ 2 f.",
"i.U F %.[ W R / Q ..o.S.].6X>X4X8X3X3X8XrXqX0X3X>X6XM.:.C.C.O.q.Y.r.r.<.A.;X8X=X8XqXrXqX6X3X3X9X=X4X3Xp.t.u.<.<.3...<.k.g.o 3 f.",
"i.P ~ &.( g.g.N u 3.o.C.`.0X4X&X8X1X=X8X8X8XeX8X2XwXM.5.B.5.K 3.E.r.y.X.A.;X0X,X9X9X8X9X3X*X6X<X=X9X1X] f.<.o.E d 9 ] k.g.. 0 H.",
"i.P ! %.R c.R.] W ..X.s.^.5X4X>X1X1X&X1X9X8X8X3X2X7Xv.y.y.B.J s.E.4.r.] L.;X6X>X5X6X6X6X*X*X,X,X>X8X.Xl f.X.u.} a.p ..f.0.  u H.",
"t.P F %.! c.T./ [ / ..o.Y.:X7X&X3X,X$X&X,X3X9X3X3X6Xx.y.5.B.^ q.E.1.y.( H.{.5X>X3X4X,X*X#X#X3X=X>X6Xm.#.t.X.9.[ f.e ..s.3.  0 G.",
"e.P F %.! c.R.W ..W X. .D.^.6X>X$X4X>X&X*X+X#X+X,X2Xx.C.5.B.K s.W.4.4.R P.-X2X&XXX.X+X$X#X<X<XXX5X@XJ s.X.a.] ,.s.% ] a.X.  0 k.",
"r.^ J [ ! c.T.( 1.<.~ <...F.[.5X&X#X=X+X*X&X+X+X>X5Xn.5.&.5.B q.Y.4.1.R P.;X2XXXoX+X#X+X+X*XXX,X1Xx.&.q. .a.Z e.a.9 / 3.]   w s.",
"e.^ F %.! c.R.( ,.t.~ ....2.L.OX<XoX&X*XXX=X3X>X>X5Xn.y.,.&.n q.Q.1.4.S P.-X2X+X*X>X+X.X$X.X#X,Xm.H u.] d.] ~ t.q.9  .3.Q   u d.",
"t.^ S ' S I.!.( %.1.4.Q ,. .,.F.[.7X>X+X+X$X>X&X,X3Xv.s.%.&.n s.Y.-.1.R Y.-X,X+X#X#XXXXX.X,X*Xn.b d./ q.o.! 1.t.q.$ ~ 3.W   9 t.",
"t.O.L =.J I.!.] ,.4.4.3.Q ,...,.Z.(.#X3X3X+XXXXX>X3Xx.t.O.5.B 3.Y.4.-.S K.'.>XoX|.|.+X>X>X).a.U q.] 2.X.T 3.<.e.a.% / 1.W   w f.",
"e.U ~ =.J I.!.[ O.4.,.y.,.Q ..,.%.Y K.`.>X3X1X+X$X>Xv.S.&.5.B q.!.4.:.F H.'.#X|..X*X*X Xm.O.&.9.] <.] Q <.<.1.t.q.$ Q 3.Q   0 s.",
"u.@.L =.! I.!./ ( 1.&.4.4.4.( / @...%.Y S.~. X@X&X>Xx.C.&.:.B q.Y.&.&.^ K.'.#X.X X(.b.;.U 1.=.%.[ E ! 3.<.3.,.t.a.@ Q 9.Q   0 t.",
"u.@.R @.Z v.!.~ %.4.&.4.4.4.4.,.~ ( ..,.&.U I :.G.c.0.K.5.:.B q.Y.,.&.^ G.Q.c.S.;.I $.1.[ ` ] ` ~ ` 1.9.9.3.1.q.q.+ ~ 9.]   2 3.",
"t.@.! { Z c.R.] %.5.4.4.4.4.&.4.1.../ ~ ! ,.,.,.%.^ ..5.5.&.M 9.Y.,.%.-.( %.:.1.<.<.( ( ~ ~ W ( -.4.4.t.1.3.<.e.2.. ( q. .  2 4.",
"t.@.! @.G c.R./ O.5.y.5.4.4.4.&.-.5.5.,.( / / / / T R 3.>.&.c 3.Y.,.&.-.3.<.] ( S T W ] [ %.%.%.-.-.4.1.9.e.<.9.2.  W a. .  ; 4.",
"t.@.R @.m c.R.( ^ -.&.&.&.&.&.O.O.&.5.&.&.&.4.,.( 0.o.s.:.&.c 3.U.&.-.B I.I.A W / ' { %.@.@.^ ^ @.{ %.=.=.<.[ =. .  R q. .  2 e.",
"r.@.G *.N g.I.T R / R ~ R ! R T R T S ! R ! ! ( J q.o.s.:.+.> 1.H.O.#.M k.I.A W / ~ W R D D D A f a f a f f p p p . D 0...  2 -.",
"9.@.F $.^ ] ../ [ / ( [ ( ( ! Q ~ ~ R ~ ! ! ! ( ( ^ / 3.:.+.> 1.H.' #.^ ] ] ` ( ~ / ~ ` ( ` ~ Q W R A A C f A f a u f X. .  3 4.",
"8.U G $.%.J ! ~ ! S R R S S N ! ! ! ! ! ! M S ! ! ! ! B &.&.4 3.G.%.#.` G L L J Z J F F F S S S F W W W W W ~ ] [ ] ] <._   2 -.",
"e.^ F #.' W / ! R R R R R T ! ! J ! ! ! ! ! ! ~ ! ^ ^ ,.+.$.4 [ s.K P J Q ! ~ ^ ^ ~ ~ L F ! ! F S R F S A f A A D T R X.Q   @ %.",
"9.P L @.L 8.q.F W T T T T a / %.M ( s.T S Q R ! ~ / T <.O.%.4 [ i.J B M <.9.A T R R D R E D ` F C ` p d p p p d p + a { W   ; <.",
"e.L L @.G q.G.` ^ ' ( ^ ,.( ! ,.B ( f.,.O.&.+.4.K g. .%.+.O.> { y.M M n 3.f.S ~ ^ ' L 9.0.f @.~ F %.a W ~ / ~ [ / . A { T   2 1.",
"q.H F ' S 1.d.~ K U O.J O.( R %.B / s.,.K +.&.:.K s./ ~ +.^ * ( s.M B n <.i.N G P P G =.o.A ` P D %.y S W ~ ^ %.Q O A ` S   2 t.",
"9.G G ' Z [ 9.~ J ' #.O.^ ! R O.B ^ y.,.K +.+.:.U 3.W ( +.K < ^ 4.B ! n %.y.N Z J P P -.X.A ' L S { u F L ^ ` @.W O A ! D   9 t.",
"9.G J P Z %.9.R J U @.@.^ R R +.K ! 4.^ K ;.+.:.U ,.R ! +.P * ( 1.B K n %.4.m J J P K -.} a ~ F A ' 6 F L L W ` R O A ~ N   9 s.",
"9.G S J m =.1.L P @.#.' U ! N ^ K ! -.^ K &.+.>.O.%.R ( O.^ - ^ 1.S K m [ 1.m J J L L %.] a P F C ' 8 D F F F ! S O f L a   p i.",
"9.M S P m { 1.~ U @.O.^ ! ! S ^ K ! %.! G #.O.>.@.%.R J O.O.< ~ ,.B ! M @.-.m J S L P @.Q i P Z f ' 6 S S L L F A O A F a   w i.",
"9.c Z K m ^ 1.L ^ U P O.K J S ^ G ! %.S K O.#.:.#.( A S O.U - W %.B J n ^ <.M J L P J ^ F u F C C L 8 S Z L L L N O C L i   w u.",
"=.c C L m ^ =.L L P P P L Z A J B ! O.B ! +.+.:.#.~ N N O.K < S @.G G 8 ` @.C L L P L P D 8 L C C P i F L L L L Z O C F u   0 q.",
"<.x C G m ~ &.S G K K P K Z A J N J %.N G O.O.$.@.^ m Z K ! < S ^ L J 8 { @.m L L P F P f 8 L C C P 8 L L L L L C 2 C Z u . 2 9.",
"=.x v Z i J %.Z M G P P J N N G n N ^ N B O.^ O.O.! u S J S 6 m P Z L Z ' @.v L P L F L f 5 G C f P i D L L L L v 1 i Z 6   O } ",
"} x i Z y S ^ Z Z G J G G N m N n N U M S ^ ^ O.O.J t S J Z : m J M G i P @.8 D L G Z L i 5 F Z i P 8 Z Z L Z L i 2 C C 6 . 2 8.",
"X.x i m y Z ~ C M G J M G N y N n N O.M M O.! ^ P J 7 Z ! J : a J m M y L @.8 Z F v C D u 1 Z C i L u C G L G L 8 = i C 6   2 -.",
"[ 4 i Z y m J N M G G M M N u M y m K m M K K J ! Z 3 m J N : u L m m 6 L P 8 C Z v C C t 3 C v 8 G 8 C Z G Z G 8 = 8 v 5   O *.",
"[ 4 y m y m J N m M J M M n y v < y K N M K M J J N < N G M : y J m m y Z L u C C v v C 5 3 C C u Z 8 v C Z C Z 6 O 8 8 6   O ' ",
"[ 4 6 N t i Z N m m M M N t 6 n y < M n N B N N G M 6 N G N : 6 Z i m 7 C G 1 v v 8 4 x 5 ; v v 8 C 5 8 v v 8 v 6 ; 5 8 1   O ' ",
"/ , y m t 7 N u y m n u y 6 : y < t n 6 y y y y y y : i M m = 6 Z m Z 6 Z S t y 8 u u u 3 = f 8 1 Z f C i d 8 u 3 X 5 7 -   O ' ",
"/ > y m < t R / [ [ / [ [ Q y t t : N / ( ,.,.,.,.[ T y m m ; 6 m v m 5 A =.=.} ` } } { ` f v v 1 ] 9.9.8.8.w.w.6.Q 6 5 =   O L ",
"/ > 6 y 6 < u m i m a N N y t < < < t y N N N N Z N N 6 n m = 6 m 7 y 6 y C i y 8 5 u 8 C C 8 8 t A D D D L L D W F i 1 ;   O F ",
"Q * < t 7 t < < < 7 7 7 7 n < 6 7 < 7 7 7 < y n y m m y m n = 3 7 7 i m i 7 5 6 5 5 4 4 4 4 8 8 v v Z v v v v 8 4 1 1 6 1   O G ",
"Q * 6 6 < < < < 6 6 n y 7 7 7 7 < 7 7 n v v m m n n m y 7 n = ; 7 7 8 7 7 8 5 7 4 8 8 8 4 x 4 8 8 v v v x x x 4 x 1 & * &   O Z ",
"T * 2 3 3 9 0 0 t u u t t t u t u t t t t u u a u u t t 0 u ; : 6 3 9 9 3 w 0 0 w 3 w 1 w w w w 0 u u u s 8 d 8 d d d d s . o v ",
"T * 9 q e r e e r r e e e e r r e e r r r r r r e e r r e s q 3 a d g h g g h d g g g g f j j g j j d j j j j ) E ) ) 6.) % X v ",
"g X o o + + + + + + X o o o o o + + + + + $ @ $ 9 9 # $ # # + + # # # % 2 2 # # # # # 2 2 # 2 # 2 2 2 2 q 2 0 0 0 s q s s s s 8 "
};
