/* XPM */
static char *_638083935795[] = {
/* columns rows colors chars-per-pixel */
"64 64 248 2 ",
"   c #483B09",
".  c #523F12",
"X  c #503F0F",
"o  c #682E3C",
"O  c #4D440A",
"+  c #55470A",
"@  c #575808",
"#  c #4D4315",
"$  c #544512",
"%  c #5B4B15",
"&  c #5C4D1C",
"*  c #574717",
"=  c #5C5518",
"-  c #624D19",
";  c #635C14",
":  c #64531C",
">  c #6A551D",
",  c #645A1C",
"<  c #6B5B1E",
"1  c #655216",
"2  c #715B1E",
"3  c #5C680C",
"4  c #636A0C",
"5  c #686B0D",
"6  c #697A0D",
"7  c #636314",
"8  c #6B641B",
"9  c #686A18",
"0  c #736C1B",
"q  c #6B7514",
"w  c #6D7C13",
"e  c #6B7617",
"r  c #747A19",
"t  c #75790B",
"y  c #594D21",
"u  c #5C5324",
"i  c #5A5431",
"p  c #645523",
"a  c #6B5523",
"s  c #6D5B23",
"d  c #6D5C2B",
"f  c #655828",
"g  c #735D24",
"h  c #735D2B",
"j  c #765A2A",
"k  c #665B35",
"l  c #725D33",
"z  c #6D6422",
"x  c #6F6728",
"c  c #746324",
"v  c #7A6424",
"b  c #736D22",
"n  c #796B26",
"m  c #74632B",
"M  c #7B642B",
"N  c #7B6A2B",
"B  c #746A2B",
"V  c #7A7425",
"C  c #6C6337",
"Z  c #756331",
"A  c #7B6431",
"S  c #7C6A32",
"D  c #766A3B",
"F  c #7B713E",
"G  c #2C3C5B",
"H  c #273959",
"J  c #333C5D",
"K  c #393C58",
"L  c #2A3C61",
"P  c #343E64",
"I  c #393F65",
"U  c #1E3D51",
"Y  c #493A5B",
"T  c #573C56",
"R  c #54374B",
"E  c #663B54",
"W  c #743C54",
"Q  c #693649",
"!  c #443E62",
"~  c #29435B",
"^  c #3A455B",
"/  c #2D4462",
"(  c #2E4669",
")  c #344464",
"_  c #344A64",
"`  c #3B4B65",
"'  c #34446B",
"]  c #344B6B",
"[  c #3C4B6C",
"{  c #3B4566",
"}  c #35526B",
"|  c #3B536B",
" . c #375266",
".. c #3B4C71",
"X. c #3C5473",
"o. c #3B5674",
"O. c #47425C",
"+. c #584255",
"@. c #694454",
"#. c #714850",
"$. c #6B6749",
"%. c #786B47",
"&. c #7B7148",
"*. c #78745A",
"=. c #6C6A51",
"-. c #424B6D",
";. c #444866",
":. c #46556D",
">. c #444E74",
",. c #445472",
"<. c #4B5C74",
"1. c #495978",
"2. c #525C7B",
"3. c #5E4461",
"4. c #4A6279",
"5. c #55657A",
"6. c #7B7965",
"7. c #6F717C",
"8. c #6E5067",
"9. c #913438",
"0. c #B0343E",
"q. c #D53F3B",
"w. c #E73B39",
"e. c #826C2C",
"r. c #82682E",
"t. c #84722E",
"y. c #86792C",
"u. c #836D32",
"i. c #886E35",
"p. c #837234",
"a. c #8B7433",
"s. c #8B743A",
"d. c #8D7A3A",
"f. c #897839",
"g. c #947B3A",
"h. c #82791A",
"j. c #D0433E",
"k. c #EA463D",
"l. c #9A384B",
"z. c #902B49",
"x. c #A53448",
"c. c #96515A",
"v. c #894A57",
"b. c #B04A53",
"n. c #877745",
"m. c #957C42",
"M. c #857A5A",
"N. c #877150",
"B. c #955064",
"V. c #B15363",
"C. c #857D64",
"Z. c #837D75",
"A. c #CB4949",
"S. c #D64A4B",
"D. c #C84A56",
"F. c #D05053",
"G. c #D24858",
"H. c #6D8B0B",
"J. c #6D850A",
"K. c #738D0B",
"L. c #75870B",
"P. c #659600",
"I. c #6B9503",
"U. c #659B01",
"Y. c #6B9D01",
"T. c #6C9C0A",
"R. c #6B950B",
"E. c #729D04",
"W. c #73930D",
"Q. c #749C0B",
"!. c #78980B",
"~. c #6E8412",
"^. c #6F8F10",
"/. c #738314",
"(. c #788718",
"). c #749212",
"_. c #7B9514",
"`. c #7B9B13",
"'. c #789817",
"]. c #66A200",
"[. c #6CA201",
"{. c #6FA802",
"}. c #6DA209",
"|. c #71A403",
" X c #73AA04",
".X c #79AD05",
"XX c #73A30A",
"oX c #7AA40C",
"OX c #76AC0A",
"+X c #79AD0A",
"@X c #79A606",
"#X c #7BB104",
"$X c #7BB10B",
"%X c #77B009",
"&X c #7CAD12",
"*X c #79A312",
"=X c #7D8523",
"-X c #5E9A00",
";X c #7E8671",
":X c #80991A",
">X c #82891C",
",X c #82AB18",
"<X c #81B00F",
"1X c #878628",
"2X c #889527",
"3X c #96843B",
"4X c #99923D",
"5X c #8F8732",
"6X c #A2873E",
"7X c #84A820",
"8X c #9B8444",
"9X c #998546",
"0X c #958659",
"qX c #A28947",
"wX c #A59355",
"eX c #878466",
"rX c #958867",
"tX c #878577",
"yX c #969075",
"uX c #A19269",
"iX c #5B6A84",
"pX c #5F7288",
"aX c #636D8B",
"sX c #6A7A8C",
"dX c #647589",
"fX c #767D8B",
"gX c #6A7893",
"hX c #757B94",
"jX c #7D8886",
"kX c #738392",
"lX c #7B889A",
"zX c #768998",
"xX c #7B8BA2",
"cX c #7F92A0",
"vX c #878988",
"bX c #8C928C",
"nX c #949284",
"mX c #838B99",
"MX c #868A95",
"NX c #8A9498",
"BX c #929598",
"VX c #918C89",
"CX c #848AA4",
"ZX c #8592A4",
"AX c #8B93A3",
"SX c #8B98AA",
"DX c #9299A6",
"FX c #A19982",
/* pixels */
"|.Y.U.[.[.{.{.{.U.U.|.|.|. X#X#X X[.|.|.{.U.].[.[.[.|.Y.Y.Y.E.|.|.E.U.U.|.|.U.Y.[.[.|.|.|.|.XXXX+X+X|.E.|.|.[.[.[.[.{.[.{.[.U.Y.",
"}.|.[.[.[.[.[.[.[.[.Y.|.Y.|. X+X[.}.[.[.{.[.[.}.[.[.|.XX|.U.E.E.E.Y.U.U.Y.|.Y.[.[.|.[.[.|.[.[.[. XOX.X|.[.|. X X{.[.[.[.[.[.Y.[.",
"|.[.[.[.[.[.U.[.|.[.Y.Y.[.[.{. X&XOX[.XX+XOX}.[.}.[.[.[.[.[.[.[.[.U.{.[.[.[.|.[.|.[.U.U.[.|.[. X|.|.+X+X X[.+X$X X|.[.Y.U.[.}.[.",
"Y.|.|.[.Y.Y.[.Y.|.|.[.Y.|.[.{.[.OX&XOX|.&XOX|.[.}.[.[.[.{.{.{. X[.[.}.[.U.U.|.Y.|.[.U.U.[. X|.[.Y.|.OX+X[.XX+X+X|.[.[.U.[.[.}.[.",
"Y.Y.[.Y.Y.Y.Y.|.Y.|.Y.[.|.}.[.[.{.{.{.[. X|.U.U.[.[.Y.|.|.|. X+X|.Y.|.|.[.U.|.[.[.[.[.U.[.|.[.[.U.[.[.{.[.XXoX}.[.[.[.[.[.[.[.[.",
"Y.Y.Y.Y.Y.|.E.OX|.|.|.[.[.[.[.U.].{.].U.[.|.I.Y.XXQ.E.I.E.|.oX<XQ.E.E.|.|.OX|.[.[.[.].[.[.[.|.[.[.[.[.{.[.[.XXY.Y.I.|.|.|.|.[.[.",
"Y.[.[.[.|.|.OXOX|.[.[.[.[.[.[.].].].[.|.|.Y.I.H.W.W.K.K.K.W.:X:X_.K.K.!.*X@X[.Y.].[.[.U.Y.|.E.XX[.].[.[.[.}.|.}.Y.I.E.@X$X X[.{.",
"U.[.|.|.|.@X@X+X@X[.[.[.U.[.[.[.P.U.Y.XXQ.K.J.J././././.(.r t r t r /.(.:X`.W.Y.XXXXoX|.|.Y.[.[.[.{.{.U.Y.Y.Y.Q.Y.U.U.OX$X#X X{.",
"{.{.OX$X$X X X|.[.{.].[.[.E.|.E.I.Q.`.).~./.r 4 4 V 1XV V b 8 ; 0 r y.(.r (._.K.`.`.,X,X|.U.[.[.[.[.U.U.[.Y.Y.Y.E.E.Y.|..X#X<X#X",
"].{.%X$X+X X|.[.{.{.[.[.[.|.oX!._._.2X2X=XV r 8 b p.d.f.p.B c < c n f.y.5X5X1X>X>X_.7X*XXX[.{.[.|.[.U.I.U.Y.Y.[.XXY.Y.|. X.X<X#X",
"[.{.+X$XOX|.[.[.].{.].Y.oX*X`._.(.y.5X4X5XN N c B p.f.s.p.M s : < 0 t.d.8XqX4X3Xy.r (.(.W.XXOXOXXXY.U.P.U.E.[.[.U.U.Y.|.|. X#X<X",
"{.{.+XOX X[.[.[.].U.U.E.`._.L.r 1X3X5Xg.f.S S m v u.f.m.m.s.h > g c t.g.qXqXg.g.a.b 7 e ~.).Q.oXQ.Q.Y.I.Y.|.|.[.P.U.[.[.[.|. X#X",
"{.[. X@X|.[.U.[.U.-X}.'.).w q 0 5X6Xa.e.s.u.g g v e.d.3X9Xd.m > < v e.g.8Xg.i.i.i.g < 9 r e /.).).Q.Q.T.E.|.|.[.U.[.[.[.|.|.[.|.",
"[.U.U.[.|.|.Y.U.-XT.T.^.w 4 8 n a.d.r.N s.M > g v e.d.3X8Xs.g 1 < v e.d.qX8Xi.i.M > > m B b V V (.).`.Q.E.|.|.[.[.].[.}.|.[.E.Y.",
"|.Y.Y.Y.E.XX}.T.P.R.P.6 3 ; g N r.u.m M i.Z s s n a.3X9X8Xs.M a j A r.s.9X3Xe.N g > > s c u.a.y.r H.W.Q.|.|.[.].[.].U.}.Y.[.|.Y.",
"|.Y.I.I.Y.}.}.T.P.H.J.@ + = h M s.p.A m m m m c n g.9X9Xm.a.j > - a h r.8X9Xp.n c a : : j i.m.i.r w J.W.E.|.[.{.OX{.}.Y.Y.Y.|.|.",
"|.Y.E.|.Y.Y.}.T.^.6 7 O O * a M r.r.A m x x B M N a.m.9Xm.s.g 1 % 1 2 e.g.m.s.m s p y p h s.s.A B 0 r '.@X|.[. X%XOXXX}.U.|.[.U.",
"|.Y.E.|.U.[.}.Q.~.5 = * O # p m M A j c x z m h j r.d.9XqXg.m , , s 2 N a.s.S m : : p : s u.u.c s ; r 1X:X@X[.[.OX&XXXXX|.|.|.[.",
"[.[.[.|.Y.[.T.W./.5 ; & y # $ z N e.c j j a a j r.i.9XqX9Xm.l f d d f M S u.S x & & % - m S x < s 8 9 (._.oX[.[.[.[.}.XX[. X|.[.",
"[.[.U.Y.Y.E.W.).t 8 z p = # $ p S a.r.M r.l l l N.M.rXuXrXC.&.*.*.=.%.&.n.n.B f & $ X - s m < ; c B b e _.`.|.Y.].}.}.[.[.[.|.|.",
"].].P.P.Y.E.K.>Xh.e.r.s u u p a B s.i.u.n.%.%.*.6.vXtXvXVXvXfXZ.fX7.Z.Z.eX0X&.z & $ $ - p p s g N t.V e (.'.oX|.[.|.}.[.[.[.[.[.",
"].].-XU.I.W.L.>X5X6Xt.2 u p & : m s.g.s.M.C.;X;XMXmXlXfXhXhXhXhXfXMXMXVXyXyXeXD f $ $ & f a g e.a.d.S b 9 ~.W.E.E.Y.Y.U.U.[.[.[.",
"U.U.-X-XE.W.>Xh.qXqXm.N f u $ + B f.9XeXtXjXjXjXlXlXhX7.2.2.5.5.hXlXlXlXjXjX;X*.$.i y u f h r.a.8X8Xf.B 7 4 R.E.U.U.U.[.[.[.[.{.",
"[.U.U.Y.T.K.(.g.m.qX9Xd.D h % % x &.eXtXvXmXmXkXgXsXiX:.^ { ;.;.5.aXgXdXsXkXMXfX6.6.=.C l M a.g.qX8Xm.S z q /.I.I.Y.[.[.}.[.[.[.",
"|.E.Y.U.T.(.=Xf.n.m.qX0Xn.N s p %.M.tXvXMXCXlXdX1.o.] H H L U H H K -.1.2.iXhXCXfXvXtXC.%.n.g.6X8X9Xm.i.m e r _.E.E.[.[.[.[.[. X",
"|.|.T.T.R.~.x x a j a.s.f.p.m Z *.vXmXlXhXgXaX<._ ~ G H L L H G K G J I P iXaXaXhXCXCXvXyXm.6Xg.g.d.i.h < 8 r _.!.E.|.|.}.[.[.[.",
"|.E.U.T.R.w ; = . - 1 < M S n.&.vXCXxXkXiX<.:.^ ~ G / L G J ^ ^ K K H ~ L ' I >.5.hXCXvXVXuXm.N e.e.M g g B 1X_.E.E..X+XXX[.U.[.",
"E.[.U.}.)./.9 p % . X + % s %.C.MXxXgXiX| ~ ^ G K O.T +.E Q #.#.@.@.+.O.P L P { [ 2.gXzXVXyX&.s 2 2 g N f.9X5X_.!.<X<X.X{.U.Y.|.",
"oXE.[.|.'.(.b m a - $ X + > &.tXMXmXaXo.( L L K Y #.c.0.A.A.A.A.D.D.B.E ! ) ( ~ ~ ~ 4.zXbXZ.*.a > s j a.9XwX4X>X_.+X$X%X X[.|.|.",
"E.[.|.|._.(.b M j j > - - l C.VXBXlXpXX.( L P ! T c.A.k.F.F.A.A.A.D.B.R K / ( ~ ~ U 4.zXNXvXC.N.r.r.u.g.qXqX4X2X:XoX#X X[.|.|.|.",
"Y.].[.|._./.0 e.u.u.j h l &.tXNXMXfXiX....' P ! Y v.S.j.v.@.@.E @.+.Y P G / _ ] ' _ o.gXlXVXyXM.n.a.a.a.g.3X5X1X:X@X X{.[.[.E.E.",
"}.}.U.E.K.r V t.i.n.i.h D C.MXNXhXiX} L L P P ..;.W S.A.Q ^ { ^ [ ] L ' G ' [ | ..o.1.2.hXmXVXC.n.a.t.a.g.g.y.(.W.@X|.[.[.[.E.Y.",
"}.XXY.T.W.w V p.a.3Xg.m.rXtXAXxXpX] } } / ) ' P K W S.A.R [ ^ G P ) { _ { ) [ ..| o. . .dXCXDXvXM.S a.a.a.a.V r ).E.[.[.U.U.[.|.",
"[.|.Y.W.W.~.b S g.3X6XwXyXMXCXxXiX~  .| _ _ ] ' ! W S.j.Q T T R T T ^ ` [ [ [ { |  . . .aXCXSXNX*.Z r.t.i.t.0 r ).Y.[.[.U.U.[.|.",
"[.[.Y.Q.)./.b S r.i.8XuXFXBXlXgX..H } | >.[ ..{ ! Q w.w.0.l.b.b.b.v.T { ..' [ [  .-.| ` 5.kXNXbX*.f 2 r.e.n 8 e ).E.Y.Y.[.Y.[.|.",
"{. XY.I.W.w 9 B 2 r.i.wXyXBXsXiX>.) ` [ [ { { -.! W S.k.S.D.V.V.V.V.T { ] ' -.-.-.,.o.] :.dXzXbX*.& 1 1 s s 7 e ).E.[.[.XX|.[.[.",
"[.[.[.Y.W.6 7 s 2 > r.n.tXBXkX2.>...| _ ) P ' I ! W G.k.0.c.c.v.v.8.{ / X.] -.! >.X.o.o.<.aXlXBX*.y % > > , @ e ).E.|.|.XX[.I.U.",
"[. X|.!.`.w 7 , 1 - a l Z.BXkX4.,...} _ ( ( ' L ! W G.q.9.R +.R T ! ^ } X.] -.-.>.X.o.o.5.gXSXAX*.y & , 1 ; 7 q ).E.|.|.|.[.U.U.",
"[. X.X<X,X~.7 , > a a l ;XDXzXiX4.|  . .] ( ..P ! #.G.S.Q K I I K ! ^  .}  .[ :.,.[ | ,.pXlXSXNX=.# y p 1 8 q w ).Q.OX@X|.|.[.[.",
" X X.X<X&X~.7 , * % - k 6.NXNXkX5.|  ._ ] ( ..{ ;.#.S.A.o R ! ! T T O.:.| } | ,.,.[ ` <.sXZXAXvX$.# y a 1 t.1X(.W.oX+X+X X[.[. X",
"$X#X#X+XoXJ.3 = # X X y *.bXDXZXsX:.] ( ( ....[ :.#.A.k.9.9.z.l.x.x.B.T { [ o.X.X.` ,.iXhXMXvX*.k a j j 0 y.2X:X!.E.|.@X.X+X{.{.",
"&XOX+X+XQ.W.4 = * $   X k 6.NXZXsX4.] ( ' ' { [ :.@.b.S.F.F.D.D.D.V.B.3.-.( ] ( ^ [ iXhXAXBXtX%.f > M a.g.5X1X:X!.|.|.|.+X#X X].",
"$X%XOX[.|.Q.^.9 f & $ X y $.jXAXlXpX:._ ) ) / _  .;.v.c.c.V.B.c.c.8.2.;.' ( ) J ^ 4.gXZXDXDXC.Z a j a.3X6X1Xt K.!.|.|. X#X%X{.{.",
"%XOX}.}.}.Q.H.w x d p % y C 6.BXBXzX5.<.{ ) _ _  .` O.E @.Q @.E +.T ^ { ' / ) ` :.gXZXZXMXtX&.g j i.3XqX6X1XL.K.E.U.Y.|.OX X[.].",
"|.[.}.U.[.E.W.6 0 B N s < C eXyXNXSXkXiX2.>.[ | [ [ { I ! Y ^ ` O.^ ^ ) [ [ X.<.dXcXBXbXtXN.N r.i.d.3X9X4X2X_.E.P.U.{.[.|.|.[.[.",
"[.[.].}.}.XX!.K.r V p.M c z %.;XbXDXSXlXgXiX5.:.[ X.[ ....' } }  .:.{ -.,.<.4.gXcXNXBXyXM.m v t.a.a.a.3X4X2X_.@XP.U.[.[.[.[.[.].",
"[.[.].[.|.|.E.K.L.h.y.u.A m B %.eXbXSXSXzXkXsX5.,.o.} [ ' P ~ _ ] >.-.2.aXsXkXcXDXNXtX*.F m M p.t.e.V y.1X2X).Y.].].U.[.Y.[.Y.[.",
"[.U.[.[.}.Y.E.!.L.t V t.i.m x D &.eXbXAXNXNXcXdX4.o.| ] _ ) ~ ~ ` 1.2.gXCXSXcXNXBXtX*.D x m m M c b V 0 (.:XoX[.{.{.}.Y.|.XX|.|.",
"|.Y.U.U.].}.I.I.K.J.q V y.m j A x D 6.tXNXNXZXxXgXpX1.4.5.sXsXkXsXhXhXCXCXSXDXvX6.$.i & f d l h 8 7 q /.`.&X@X[.[.[.[.E.T.Y.[.|.",
"|.|.Y.U.}.T.U.P.I.W./.t 0 c A l : u k *.tXNXmXNXcXxXgXdXzXSXDXSXSXSXAXAXDXBXVX6.i * O   $ - p p ; 5 /.`.,X&X{.{.[.[.XXXXY.Y.{.[.",
"|.|.|.Y.Y.U.P.P.Y.Q._.L.5 5 < - $ * * k *.tXvXBXBXNXZXAXCXAXDXSXSXSXDXBXVXtXM.D # y $ O O + = @ 4 /.'.7X&X%X{.{.[.|.|.I.P.U.[.[.",
"|.|.|.T.T.T.U.U.E.oX!.!.J.3 3 + # . . y C &.M.Z.VXvXBXBXNXMXvXMXmXMXbXyXM.n.&.h p f : + O @ 3 4 ~.`.7X7XOX{.{.{.[.[.Y.Y.P.U.[.[.",
"|.E.[.Y.T.}.}.[.|.|.|.Q.K.J.6 4 @ # $ a Z D &.%.$.k =.6.eXeXeX*.*.=.$.&.D D M h a a p , 7 e (.).Q.*X&X&X{.].].{.[.Y.E.|.[.[.Y.U.",
"|.|.Y.Y.}.OX[. X|.|.|.@XY.W.'.'.3 3 3 z g M Z : .   # C F D F D i # # = , c c g & , 8 7 w (.'.*X|.|.OX[.].].].].[.[.|.|.|.|.[.[.",
"|.|.Y.|.OXOX|.[.[. X#X+X}.XX&X*X^.~.~.q q V N =     $ Z N x N m & # O O , z 7 7 7 e w ~.K.W.Q.|.OX|.[.].].-X].{.}.[.[.[.[.[.[.[.",
"Y.|.|. X+X+X[.[.[.|.$X&X X}.&X&X*XW.K.H.(.r r 9 @ O + z x n n v , @ O O ; q 4 3 6 ~.^.R.R.OX@X[.[.U.{.[.].}.[.}.Y.|.[.|.|.[.[.[.",
"[.[.%X+X|.Y.[.[.|. X+X$X$X.X X|.XXQ.E.E.E.!.'.>Xw @ @ = 9 b b b < ; @ @ w (.K.W.`.}.}.XX[.|.|.[.Y.[.[.[.U.U.U.|.[. X$X#X X{.].}.",
"{. X%X%X|.[.|.[.[.|. X#X$X+X|.Y.XXY.Y.Y.[.@XOX*XW.J.w r r q r r e r w /.`.!.E..X|.[.[.[.{.XX XU.Y.Y.XX[.U.P.[.|.|.|. X X X}.}.].",
"#X.X$X+X|.[.|.E.[.[.|.@X+X+X|.Y.T.Q.Y.[.{.{.{.[.XXQ.!._._.K.H.J.^.Q.`.*X+X+X+X<X{.[.[. X+XOX X[.XXXXXXT.P.P.U.|.|.[. X X%XOX}.[.",
"$X$X+XOX[.[.[.|.|.[.|.|..X@X|.Y.Y.E.Y.U.].{.].].[.Y.E.E.Q.Q.Y.I.T.[.[. X X#X#X#X{.[.[. X+X+XOX[.Y.T.XXE.I.U.Y.Y.|.[.[. X&X%XOX[.",
"#X$X X|.[.Y.E.|.|.|.[.[.|.|.E.[.|.E.U.U.}.}.}.}.[.{.[.[.U.Y.T.T.}.].].{.[. X$X#X X X X#X@X|.|.Y.U.I.Y.Y.[.|.|.[.[.[.{. X%X%X{.[.",
"#X.X|.[.[.[.[.[.[.[.|.[.U.Y.|.|.[.[.U.U.}.}.}.XX[.[.[.[.].U.[.}.[.U.[.[.[.[.+X X|. X#X.X X[.|.Y.U.U.Y.Y.Y.[.|.[.].U.].[.}.%X{.[.",
"|.|.|.Y.[.[.U.[.{.[.[.[.U.].[.|.].].[.Y.}.XX+X+X X[.{.].[.[.[.|.U.[.|.[.Y.Y.[.|.Y.[.|.OX[.U.[.[.[.{.[.[.U.{.[.[.}.].}.].[.[.[.[.",
"E.|.E.|.|.[.[.].[.{.U.[.[.U.[.{.].].{.|.[.@X<X$X|.].].{.[.U.|.|.E.E.E.E.|.[.[.}.Y.Y.T.[.Y.Y.U.[.[.[.{.|.{.].}.[.}.}.[.U.U.[.|.|."
};
