/* XPM */
static char *_71_c820f2d4e42042bd8f9600765d5eb9360b66d051135c12c8a9b96ac36f3044d0[] = {
/* columns rows colors chars-per-pixel */
"64 64 124 2 ",
"   c #639400",
".  c #649400",
"X  c #649500",
"o  c #649600",
"O  c #659600",
"+  c #659700",
"@  c #669700",
"#  c #669800",
"$  c #679800",
"%  c #669900",
"&  c #679900",
"*  c #679A00",
"=  c #689A00",
"-  c #699A00",
";  c #689B00",
":  c #699B00",
">  c #699C00",
",  c #699D00",
"<  c #6A9C00",
"1  c #6A9D00",
"2  c #6B9D00",
"3  c #6A9E00",
"4  c #6B9E00",
"5  c #6A9F00",
"6  c #6B9F00",
"7  c #6C9F00",
"8  c #6BA000",
"9  c #6BA100",
"0  c #6CA000",
"q  c #6DA000",
"w  c #6CA100",
"e  c #6DA100",
"r  c #6DA001",
"t  c #6DA101",
"y  c #6EA101",
"u  c #6CA200",
"i  c #6DA200",
"p  c #6DA300",
"a  c #6DA201",
"s  c #6EA200",
"d  c #6EA300",
"f  c #6FA300",
"g  c #6EA201",
"h  c #6EA301",
"j  c #6FA301",
"k  c #6DA400",
"l  c #6EA400",
"z  c #6FA400",
"x  c #6EA500",
"c  c #6FA500",
"v  c #6EA401",
"b  c #6FA401",
"n  c #6FA501",
"m  c #6FA600",
"M  c #6FA601",
"N  c #70A500",
"B  c #70A501",
"V  c #70A600",
"C  c #70A700",
"Z  c #71A700",
"A  c #70A601",
"S  c #70A701",
"D  c #71A701",
"F  c #70A502",
"G  c #70A602",
"H  c #71A602",
"J  c #71A702",
"K  c #71A800",
"L  c #70A801",
"P  c #71A801",
"I  c #71A901",
"U  c #72A801",
"Y  c #72A901",
"T  c #72AA01",
"R  c #72A902",
"E  c #72AA02",
"W  c #73AA02",
"Q  c #73AB02",
"!  c #73AA03",
"~  c #74AA02",
"^  c #74AB02",
"/  c #74AB03",
"(  c #74AC02",
")  c #74AC03",
"_  c #75AC03",
"`  c #74AD03",
"'  c #75AD03",
"]  c #76AD02",
"[  c #75AE03",
"{  c #76AE02",
"}  c #77AE02",
"|  c #77AF02",
" . c #76AE03",
".. c #77AE03",
"X. c #76AF03",
"o. c #77AF03",
"O. c #76AD04",
"+. c #76AF04",
"@. c #77AF04",
"#. c #78AF03",
"$. c #77B003",
"%. c #77B004",
"&. c #77B104",
"*. c #78B003",
"=. c #78B103",
"-. c #79B103",
";. c #79B203",
":. c #78B004",
">. c #78B104",
",. c #79B104",
"<. c #78B204",
"1. c #79B204",
"2. c #79B304",
"3. c #7AB204",
"4. c #7AB304",
"5. c #7BB304",
"6. c #7AB404",
"7. c #7BB404",
"8. c #7BB504",
"9. c #7AB405",
"0. c #7BB405",
"q. c #7BB505",
"w. c #7CB505",
"e. c #7CB605",
/* pixels */
"l i 4 4 p c x p 4 4 d x p P 4.3.D w l i 3 : < 6 s x x i 4 4 i c m w o o 9 l 6 6 s x c c l l p S >.%.A 9 p l p p d l l l x p 6 1 ",
"l d 0 0 i p p i 0 0 i p i S o.*.E c l l b g 0 0 p l x d 0 0 i l l 0 * * i d 6 6 d l w w d l p A ) ' R V l l D D c l p s p i 0 6 ",
"l l l i 0 6 6 0 i i 0 0 i c V W X.' c V o.o.D i l l l l d i p i 7 6 0 i l d 4 6 d i & % w c l d e H *.*.m V *.*.P i 0 4 4 0 i l ",
"s p d i 6 2 4 0 l d 4 4 d k 9 b [  .c V *.*.M 9 p l d p l c K V 0 7 l c p e 7 w l w @ @ w c c i > t o.=.V V *.*.S 0 7 4 4 6 i d ",
"6 6 6 6 2 4 0 i l p 4 4 d d 6 0 S P x c Y n ; * w l 0 8 u P #.o.A i x l 4 3 w l l i 1 1 i c x i 3 7 A P c c P A e 0 i p u 0 0 6 ",
"2 4 4 4 4 e A L c i 0 0 i i 7 4 6 w p l p 3 X O w l 7 4 w U 4.4.U i p d h h d p l p 0 0 i p l d 0 0 i p s d p w > 1 i V P V 0 2 ",
"2 4 0 w 8 n [  .S p l i 7 7 p 8 # & w l e > . O w l 6 4 w P >.>.P u 3 h ....h 3 u p u w 6 0 d x p p x d 0 0 l w @ @ 8 Y *.o.c 8 ",
"4 e A P S R X.[ S p l i 7 7 l u % $ w l 0 : # = w d 0 0 i S ' ' A w 3 b *.*.d 6 n P I A w 4 w p l l i 8 4 6 i w * & 5 P 1.6.^ C ",
"w A { 1.>.' R n x i 0 0 i p p u 5 8 d d 6 3 8 w u p i p d c C c 0 6 i c D S d c ) >.1.} A 0 1 4 d i = # < 4 4 0 i w 1 h @.7.1.-.",
"p P 4.e.1.) c i l d 4 4 p m D U Y P c i 0 0 d m P D m l l l p i 7 6 w u p i i V ) 1.w.;.P i g b c 0 O . : 6 4 0 i w 4 a W &.6.w.",
"i P 4.7.Q c l l c d 4 4 u P o.4.4.{ m w i i u A *.=.P l l l l l l w * * u l 7 7 l Q 1.:.c c o.*.Y 6 o   - 0 d 0 & & 8 l c E >.0.",
"p D o.o.V w i i w 0 8 0 0 V o.7.w.1.Q m x x m W -.$.n 8 e d l l x 6 X o 8 d 0 6 w m ) ' P R *.o.S 6 * & 1 e x u @ @ w c p c Q O.",
"l c P K c i 0 1 $ * w d 6 0 c ^ >.6.4.{ V C | *.( v ; # 1 0 d l e > X X > e i d k l c R  .[ H t 7 6 w u i d l i 1 1 p c x l g t ",
"x p 8 8 p l e >   O 8 d 0 6 8 l Q >.w.,.c V 4.4.D > X X > e i i 0 1 & & > 7 i l l l i M  .' t > 2 0 i l l l l p 0 0 i p d i 6 1 ",
"c w # # w c l 6 O X > e i i 6 0 l Q 2.:.i f 3.4.B *   O 8 l e 0 i p i 0 4 2 4 w l c l x S A l p d i 4 6 i x l l i 0 7 4 4 0 i d ",
"d 0 & % 8 l m u & @ > q l d 6 1 6 x ) ! 7 e { o.b : + & w i 1 1 p c l p 0 6 6 6 0 w i p p p p l l l g g d p l c P S e 4 4 0 i d ",
"6 6 w w 6 0 l p > ; 6 p l d 6 1 4 7 s t 2 7 V D z 0 , < 7 4 + # w l 0 7 i d l w * & 1 0 d p 7 6 i S ' _ n w i P =.*.A w i i 0 6 ",
"6 0 d d 0 6 w p g b D L c i 0 7 4 4 < < 4 0 u p l l e 7 4 : O % w l 6 6 p x x 6 o . > e l d 7 6 u S [ o.W V i A o.#.D p x d 0 4 ",
"d i 0 w p i 4 g / :.1.} m w i i u 0 1 4 e p l l l l l i 6 < : 1 i l w w l d e > . O 8 l l l d d d x M W -.o.h 4 y b z x x l d s ",
"l w 1 1 i i 6 i / 1.w.3.^ m l c P S e 0 d x d p l l d i 0 6 7 w i c P P c i 0 1 & * w l l l d d l p w A *.o.j 1 1 6 u d i d l x ",
"0 3 # # 1 0 u d c W >.6.4.{ l c *.*.A u l d 7 7 d d 7 7 i d d i i D *.*.A w i i u 0 4 0 d d 0 0 d l k c P D z d d p 0 6 4 0 d l ",
"4 : X X > e l l p c Q >.8.4.W Y =.*.P p p i 7 7 d p 7 7 i d l l p D *.-.W m c l c d 7 7 d d 4 4 i l d i p p p p u 8 4 2 4 0 d l ",
"4 : X O 8 l l l l l c E >.0.4.*.W A m d 7 7 i p p p d i 7 6 w p l c A W *.o.S i p p p d x d 4 4 d l w w l l w < # @ : 7 e d l l ",
"0 1 # & 8 l l l d i u c W @.4.o.m 9 p i 7 7 p m S S c p 7 0 V C l u 8 S 3.4.P p S D z p p i 0 0 i w > > e i 0 < # # , w l x l l ",
"p w 1 < 3 w d d 0 0 p l a b P U c i 7 7 i p i S  .[ M w w A o...j 3 9 P >.>.S C *.o.j 1 4 0 w w 0 < + O < w i i w 0 w i d l l l ",
"x p 0 4 4 0 p d 4 4 p p 3 > 3 w l d 7 7 d x p S [ X.W V i D 4.1.g < w S ' ( l N *.o.b 1 4 w A A e > # # : 7 d x x m K D c d p s ",
"l d 6 4 0 i l d 4 4 u u 4 : # * i c d p l l l c n W -.o.e g :.:.g 1 i m S c 0 w A D c i w A [ [ n 8 8 5 1 6 d l u m o.*.D w 0 4 ",
"l p 0 e A P c i 7 e V C i > . o 6 l l l l l d i w A *.o.s e ( ) h 6 i p p u 4 4 w p l d p S [ X.R D Y S 0 6 i c m ^ 4.4.P w 0 6 ",
"x l w A *.*.A 9 w A o.o.D 3 X . > w i l l d 7 7 i c P S l d C S l i 7 7 p p 4 4 p l w 0 d c M R ' >.3.{ c 8 u C } 4.0.%.S i p d ",
"s i p P *.-.^ m p U 4.5.T 8 * & 1 e A S x i 7 0 d l w w l l i u d i 7 7 d d 0 0 i w > 1 i l i c ) <.q.4.( m p P 1.q.>.^ A p p d ",
"4 0 p m A ~ -.*.V D 4.4.Y u u w w A [ [ M w i d l d 6 6 d l 0 4 6 0 i d c c d i 0 < @ & w c l l c W >.7.4.{ c A >.1.E c m l 0 4 ",
"4 7 i p w A o.o.V m | $.D p l l p S [ X.E V c l l i 0 7 i i 6 2 4 0 d l w w l l e > X O w c d p u c E %.w.1.S l ^ ) n w w 8 6 6 ",
"d i 0 0 p l j j d c K P m p 7 7 d x n W *.o.D i p i p i 7 4 4 0 i l c w & & w c l 6 o O w l 7 7 p d e G >.>.P u a s x w & # 8 d ",
"x d 4 4 d d 3 3 p d 8 8 i i 7 7 d p w D 3.4.P p S P m p 0 3 > 2 e l c w # # w c m w $ $ w l 7 7 l p 1 e / ' S u 4 4 i w # & u m ",
"x s 4 4 d l w w l w & + > 0 i d l l i D >.>.S V *.*.D p l 0 & @ < w d p 8 8 p l x i 1 1 i l d d l l i d V S c l p e 7 6 8 i x m ",
"l p 0 8 i c P P m w & @ < 0 i l l l p A ' ( l c *.*.D p l 8 O X > w p c P K c p l p 0 0 i l l l p d l l l p i d x l 6 7 l x u 0 ",
"l l u w 9 S *.=.D u w w i i 0 0 p l l c S c 0 0 A P c i e > . o 6 l p P *.o.m w p l d p i p l d 7 7 p c c d 0 0 d l u i x i * o ",
"p x S P A W =.*.D p d l x p 1 1 i l d p p i 7 4 0 i l d 0 < $ = i x w S 1.6.^ m x l p c D D c i 7 7 i p u 8 3 4 i c S S m 0 * o ",
"w V } 1.>. .E A c d 0 w l u & $ w l e w p l p e 4 6 d l d i w i l p 6 h @.0.4.{ K p 9 A *.=.D i d i 0 1 & % > 6 u S  .[ M w w w ",
"V W 3.q.<.) c w p e 4 6 l w O O w d 1 > w l x d 7 7 i l l l l l l i 1 r W >.w.1.A i c W *.o.S p d i e > . X > e i S [ X.E V m x ",
"=.1.4.>.E c l i 0 4 1 7 l w O O w i # O > e l x d i i p l d 0 7 d d 4 6 l Q 2.:.g e o.=.H g l d 6 7 d 8 o X 6 x l x M W *.o.D p ",
"w.6.%.Q c i l d 0 4 6 0 l w # & i i * # 1 0 i d l c D C c i 6 7 d d 0 6 8 z ) ! 0 s o.o.g > w i 7 0 d w * * 0 l d i w D 3.4.P p ",
"9.>.E c l l l l d s i p p w > 1 i l i w p i 7 6 u P #.o.m 9 i d l l i 0 6 7 e g i l D P l w 6 0 p d 0 8 w 0 6 6 7 w w P >.>.P p ",
"+.^ l w d l p d l x l c K V e 0 i l l l x p 0 6 w P 4.6.^ m c l p c P S e 4 1 6 d l w w l l 0 6 w 9 1 6 l l 0 1 : 1 u S ' ) n u ",
"P n 0 6 d d 6 7 d x p D #.o.A w i u 6 0 d x p i u S %.0.3.} K p w A *.=.S w i d l p 6 6 p l l 8 & @ : 7 d x l 6 @ # w m C c w 4 ",
"u w 7 0 d d 7 7 i p u P 4.4.P l P A 0 4 e d l x p A Q >.q.,.A i c Q *.o.D p p d l p 6 6 i x m u & @ 1 w i l c i & % 8 l k i 0 4 ",
"4 7 i x l l l p 0 7 u P >.>.S C =.=.S 8 4 0 l m x l c E 1.@.g e o.=.H g l d 7 7 d l w w p l c l w w i p i p l d e 8 6 0 p l p i ",
"6 6 0 u l l i 0 3 4 u S ' ( l c o.*.P i 6 6 8 w i i i c ' / w s o.o.g 1 p d 7 7 i c P P c p i p x c l c C D x l c l 0 7 i l l l ",
"d 8 # & p p ; # : 7 i c S m 0 6 g b z x l 8 % @ < 0 p c C M d l D P z d l l d i i D *.*.S 8 1 4 d l u m o.#.D p l l d i 0 0 d l ",
"c w & & w 0 O . > e d l i w 7 4 1 3 w l c w & @ < 0 i p p p l l u w w u i p l l p D *.-.W n j g d l c ^ 6.4.P p p l l w > < i x ",
"l l u w 0 > . o 6 l l p 6 6 i p d i 7 7 i p w w i i 7 7 p l l p w , # # < 0 p l l c S W  .:.>.] c m { 4.0.>.P p l d w > O # w c ",
"l l l p 0 < # = i c l i 7 7 p x l i 6 0 A K m x x p 7 7 i l l i 7 : # # < q d l d i 8 z ) 1.e.;.C C 1.q.:.W b i l d w 1 # & 0 d ",
"l d 0 6 w w w u l l p i p p p i 7 6 w S #.o.m u k l d p i p l d 6 1 8 w i d l d 0 4 6 e l Q 1.>.m C >.>.H 7 4 0 p l l p w 8 6 6 ",
"l i 6 0 A P m x l c D C l c P A w 4 0 P 3.6.^ c l l p c D D c i 0 0 d c x l d i 0 3 : > 8 m ` ' m c ) ! 0 : 2 0 d l d d c l 0 4 ",
"l p 8 b [ X.S p i D #.| x c *.*.A 8 3 j @.0.4.{ C u 9 A *.=.P p i i i p l d 0 7 p 8 @ @ 8 m V A c l g e 4 6 e p l i 4 4 p l d d ",
"p l C W  .' A i u P 4.4.W Y =.=.P w 1 r W >.q.1.D p V Q *.o.A i d c D D c i 6 6 l i & % w x p p d i 6 1 > 3 p c l l h g d l d d ",
"w m o.o.F t d l p P %.7.1.| W S m p 4 7 l W 1.>.S V *.*.J t 0 0 u P =.*.A 9 w i l l w w i p l p 7 7 i 8 # & u c p S o.o.A 8 6 6 ",
"V ^ 7.,.h 1 i l i n Q >.w.-.n 8 i i 4 4 w m ' ) l c *.o.g ; - 1 w P *.=.W A P S x l l m D D c i 7 0 x w O o 6 l p D *.-.^ c 0 4 ",
"=.1.6.%.A u l d 7 7 l W 1.:.h < 4 6 4 7 i c C n 7 0 A P c 6 @ @ w V D E  .>.1.{ S u w A *.*.D p d l c w O . : e p m A W *.o.A w ",
"w.6.%.Q n p l p 0 6 w m ) / g 3 6 4 > 1 i l p u 7 6 u p l w & & 0 d u c ) 1.w.,.D p m ~ -.*.P i w w p 0 * & 1 0 i p 9 S 3.4.U p ",
"9.>.E l 7 7 d l p p l l d g i d l 8 @ # w x p u i p l p 0 6 0 w 6 0 i l m Q 1.>.S V *.-.^ S m w & @ 1 0 w u p i 7 6 w P <.<.P p ",
"+.^ c w 6 7 i d l l l w 1 3 p x x 0 & & w m K Z c l d e 4 6 l l 6 4 d l w l ) _ l V *.*.n 8 p 0 & @ < 0 p x x p 7 6 w n ) ) A p ",
"S A l p d i 7 0 d l w 4 2 6 d d 0 6 0 w i D o.o.P u 0 6 2 6 d d 6 6 d d 6 0 m M 0 w A S e 4 6 7 0 w i i 0 0 d l d i 0 7 e s l l ",
"p p l l x d 4 4 d p 6 1 4 7 d d 4 6 d c p P 4.4.U w 4 1 2 6 d d 6 6 d d 6 4 i i 4 4 w i 7 1 1 6 d c c p 4 4 i x x p 6 < < 3 i x "
};
