/* XPM */
static char *result[] = {
/* columns rows colors chars-per-pixel */
"64 64 144 2 ",
"   c black",
".  c #010000",
"X  c #020000",
"o  c #030100",
"O  c #040100",
"+  c #050100",
"@  c #070200",
"#  c #000005",
"$  c #080200",
"%  c #090200",
"&  c #0A0200",
"*  c #0B0200",
"=  c #0B0300",
"-  c #0C0300",
";  c #0D0300",
":  c #0E0300",
">  c #0F0400",
",  c #100400",
"<  c #110400",
"1  c #120400",
"2  c #130500",
"3  c #190701",
"4  c #100B06",
"5  c #140D07",
"6  c #1A0801",
"7  c #1B0801",
"8  c #1C0901",
"9  c #1D0901",
"0  c #1E0901",
"q  c #1E0A01",
"w  c #1F0A01",
"e  c #1F0B01",
"r  c #290000",
"t  c #310000",
"y  c #360500",
"u  c #291508",
"i  c #371703",
"p  c #381803",
"a  c #3A1903",
"s  c #3B1903",
"d  c #3B1A03",
"f  c #3C1A03",
"g  c #3D1B03",
"h  c #3E1B03",
"j  c #3E1B04",
"k  c #3F1B04",
"l  c #3F1C04",
"z  c #3F3022",
"x  c #401C04",
"c  c #411C04",
"v  c #411D04",
"b  c #421D04",
"n  c #431E04",
"m  c #441E04",
"M  c #441F04",
"N  c #451F04",
"B  c #461F04",
"V  c #461F05",
"C  c #462005",
"Z  c #472005",
"A  c #482005",
"S  c #43210A",
"D  c #48230B",
"F  c #4B250B",
"G  c #4A3423",
"H  c #4B3423",
"J  c #523723",
"K  c #5F3C24",
"L  c #623D24",
"P  c #643E25",
"I  c #C76314",
"U  c #C86314",
"Y  c #C96415",
"T  c #CF6716",
"R  c #C0611C",
"E  c #C1621C",
"W  c #C1621D",
"Q  c #C2621D",
"!  c #C2631D",
"~  c #C3631D",
"^  c #C4631D",
"/  c #C7651E",
"(  c #C8651E",
")  c #C8661E",
"_  c #C9661E",
"`  c #CA661E",
"'  c #CA671E",
"]  c #CB671E",
"[  c #CB671F",
"{  c #CC681F",
"}  c #CD681F",
"|  c #CE691F",
" . c #CF691F",
".. c #CF6A1F",
"X. c #D06717",
"o. c #D16817",
"O. c #D46A18",
"+. c #D56A18",
"@. c #D06A1F",
"#. c #C96721",
"$. c #CA6721",
"%. c #CB6821",
"&. c #CC6E2F",
"*. c #CD6E2F",
"=. c #CD6F2F",
"-. c #D06A20",
";. c #D16A20",
":. c #D16B20",
">. c #D26B20",
",. c #D36B20",
"<. c #D06B22",
"1. c #D16B22",
"2. c #D36C20",
"3. c #D26C22",
"4. c #D46C20",
"5. c #D56C20",
"6. c #D56D20",
"7. c #D56C21",
"8. c #D56D21",
"9. c #D66D21",
"0. c #D76D21",
"q. c #D76E21",
"w. c #D56D23",
"e. c #D66E23",
"r. c #D86E21",
"t. c #D96F21",
"y. c #DA6F22",
"u. c #D27130",
"i. c #D37130",
"p. c #D37230",
"a. c #D47230",
"s. c #D77331",
"d. c #D87431",
"f. c #E1A375",
"g. c #E2A375",
"h. c #E8A575",
"j. c #E9A575",
"k. c #E9A675",
"l. c #E9A879",
"z. c #EAA979",
"x. c #EBA979",
"c. c #EBAA7A",
"v. c #ECAC7C",
"b. c #EFAD7C",
/* pixels */
"c.c.c.c.c.c.c.c.c.c.c.c.c.c.c.c.c.c.c.c.c.c.c.c.c.c.c.c.c.c.c.c.c.c.c.c.c.c.c.c.c.c.c.c.c.c.c.c.c.c.c.c.c.c.c.c.c.c.c.c.c.c.c.c.",
"z.z.z.z.z.z.z.z.z.z.z.z.z.z.z.z.z.z.z.z.z.z.z.z.z.z.x.z.l.l.l.l.z.x.z.z.z.z.z.z.z.z.z.z.z.z.z.z.z.z.z.z.z.z.z.z.z.z.x.z.l.l.l.l.",
"v.v.v.v.v.v.v.v.v.v.v.v.v.v.v.v.v.v.v.v.v.v.v.v.v.v.v.v.b.b.b.b.v.v.v.v.v.v.v.v.v.v.v.v.v.v.v.v.v.v.v.v.v.v.v.v.v.v.v.v.b.b.b.b.",
"k.k.k.k.k.k.k.k.k.k.k.k.k.k.k.k.k.k.k.k.k.k.k.k.k.k.k.h.g.f.f.g.h.k.k.k.k.k.k.k.k.k.k.k.k.k.k.k.k.j.k.k.k.k.k.k.k.j.k.h.g.f.g.g.",
"a.a.a.a.a.a.a.a.a.a.a.a.a.a.a.a.a.a.a.a.a.a.a.a.a.i.s.=.K G z P &.d.u.a.a.a.a.a.a.a.a.a.a.a.a.a.a.a.a.a.a.a.a.a.a.p.s.*.L z J H ",
"o.o.o.o.o.o.o.o.o.o.o.o.o.o.o.o.o.o.o.o.o.o.o.o.o.T O.Y r     y I +.T o.o.o.o.o.o.o.o.o.o.o.o.o.o.o.o.o.o.o.o.o.o.X.O.U t       ",
"3.3.3.3.3.3.3.3.3.3.3.3.3.3.3.3.3.3.3.3.3.3.3.3.3.1.w.%.S 4 # F #.e.<.3.3.3.3.3.3.3.3.3.3.3.3.3.3.3.3.3.3.3.3.3.3.1.w.$.D # u 5 ",
">.>.>.>.>.>.>.>.>.>.>.>.>.>.>.>.>.>.>.>.>.>.>.>.>.-.5.' h     B _ 9.@.>.>.>.>.>.>.>.>.>.>.>.>.>.>.>.>.>.>.>.>.>.>.;.6._ n   q   ",
">.>.>.>.>.>.>.>.>.>.>.>.>.>.>.>.>.>.>.>.>.>.>.>.>.-.8.' j     C _ 9.-.>.>.>.>.>.>.>.>.>.>.>.>.>.>.>.>.>.>.>.>.>.>.;.8._ n   w   ",
":.:.>.:.:.:.:.:.:.:.:.:.:.:.>.:.:.:.:.:.:.:.:.:.>.-.4.' j     V ) 8.@.>.:.:.:.:.:.:.:.:.:.:.:.:.:.:.:.:.:.:.:.:.:.-.4._ n   w   ",
"4.4.4.4.4.4.4.4.4.4.4.4.4.4.4.4.4.4.4.4.4.4.4.4.4.>.q.{ j     Z ' r.>.4.4.4.4.4.4.4.4.4.4.4.4.4.4.4.4.4.4.4.4.4.4.,.q.[ m   w   ",
"[ [ [ [ [ [ [ [ [ [ [ [ [ [ [ [ [ [ [ [ [ [ [ [ [ ' | ^ f     m Q  ._ [ [ [ [ [ [ [ [ [ [ [ [ [ [ [ [ [ [ [ [ [ [ ' | ~ v   0   ",
"a a a a a a a a a a a s f f f f s a a a a a a a s a d p +     % i f a s a a a a a a a a a a a s f f f f s a a a a a d p @       ",
"                                                        7 9 q 6                                                         7 q 8 9 ",
"                        : 1 2 ;                                                                 ; 2 1 :                         ",
"x x x x x x x x x x v j $     * g v x x x x x x x x x x v v v v x x x x x x x x x x x x x x v g *     $ j v x x x x x x v v v v ",
"' ' ' ' ' ' ' ' ' ` { ^ p     j ~ } _ ' ' ' ' ' ' ' ' ' ' ' ' ' ' ' ' ' ' ' ' ' ' ' ' ' ' _ } ~ j     p ^ { ` ' ' ' ' ' ' ' ' ' ",
"4.5.4.5.5.4.4.5.5.4.0.| d     v } q.4.4.5.4.5.5.4.5.4.5.5.5.5.5.5.5.5.5.4.5.5.4.5.5.4.5.4.4.q.} v     d | 0.4.5.5.4.5.5.5.5.5.5.",
":.:.:.:.:.:.:.:.:.;.2.' a     x _ 4.-.:.:.:.:.:.:.:.:.:.:.:.:.:.:.:.:.:.:.:.:.:.:.:.:.:.:.-.4._ x     a ' 2.;.:.:.:.:.:.:.:.:.:.",
">.>.>.>.>.>.>.>.>.:.4.[ a     x ' 4.:.>.>.>.>.>.>.>.>.>.>.>.>.>.>.>.>.>.>.>.>.>.>.>.>.>.>.:.4.' x     a [ 4.:.>.>.>.>.>.>.>.>.>.",
">.>.>.>.>.>.>.>.>.:.4.[ a     x ' 5.:.>.>.>.>.>.>.>.>.>.>.>.>.>.>.>.>.>.>.>.>.>.>.>.>.>.>.:.5.' x     a [ 4.:.>.>.>.>.>.>.>.>.>.",
">.>.>.>.>.>.>.>.>.:.4.[ a     x ' 5.:.>.>.>.>.>.>.>.>.>.>.>.>.>.>.>.>.>.>.>.>.>.>.>.>.>.>.:.5.' x     a [ 4.:.>.>.>.>.>.>.>.>.>.",
">.>.>.>.>.>.>.>.>.:.4.[ a     x ' 5.:.>.>.>.>.>.>.>.>.>.>.>.>.>.>.>.>.>.>.>.>.>.>.>.>.>.>.:.5.' x     a [ 4.:.>.>.>.>.>.>.>.>.>.",
">.>.>.>.>.>.>.>.>.:.4.[ a     x ' 5.:.>.>.>.>.>.>.>.>.>.>.>.>.>.>.>.>.>.>.>.>.>.>.>.>.>.>.:.5.' x     a [ 4.:.>.>.>.>.>.>.>.>.>.",
">.>.>.>.>.>.>.>.>.>.4.[ s     x ' 7.:.>.>.>.>.>.>.>.>.>.>.>.>.>.>.>.>.>.>.>.>.>.>.>.>.>.>.:.7.' x     s [ 4.>.>.>.>.>.>.>.>.>.>.",
"-.-.-.-.-.-.-.-.-.-.>.' a     x _ 2.@.-.-.-.-.-.-.-.-.-.-.-.-.-.-.-.-.-.-.-.-.-.-.-.-.-.-.@.2._ x     a ' >.-.-.-.-.-.-.-.-.-.-.",
"7.8.7.8.8.8.7.8.8.4.q.| d     v } q.4.7.8.7.8.8.8.8.8.7.8.8.8.8.8.8.8.8.8.8.8.8.8.8.7.8.7.4.q.} v     d | q.4.8.8.7.8.8.8.8.8.7.",
"' ' ' ' ' ] ' ' ' ' { ^ p     j ~ } ' ' ' ' ' ' ] ] ' ' ' ' ' ' ' ' ' ' ] ' ] ' ' ' ' ' ' ' } ~ j     p ^ { ' ' ' ' ' ' ' ' ' ' ",
"j j j j j j j j j j j f @     % s k h j j j j j j j j j j k k j j j j j j j j j j j j j j h k s %     @ f j j j j j j j j k k j ",
"                        8 q q 8                                                                 8 q q 8                         ",
"                                                        O = : o                                                         o : % = ",
"C C C C C C C C C C C C C C C C C C C C C C C C C B Z m :     1 n A B C C C C C C C C C C C C C C C C C C C C C C V Z n <   O   ",
"_ _ _ _ _ _ _ _ _ _ _ _ _ _ _ _ _ _ _ _ _ _ _ _ _ / [ W s     n R { / _ _ _ _ _ _ _ _ _ _ _ _ _ _ ) _ _ _ _ _ _ _ ( [ E x   9   ",
"9.9.9.9.9.9.9.9.9.9.9.9.9.9.9.9.9.9.9.9.9.9.9.9.9.4.t.| l     A { y.4.9.9.9.9.9.9.9.9.9.9.9.9.9.9.9.9.9.9.9.9.9.9.7.t.} M   e   ",
"-.-.-.-.-.-.-.-.-.-.-.-.-.-.-.-.-.-.-.-.-.-.-.-.-. .,._ g     B / 4.| -.-.-.-.-.-.-.-.-.-.-.-.-.-.-.-.-.-.-.-.-.-. .2.( b   q   ",
">.>.>.>.>.>.>.>.>.>.>.>.>.>.>.>.>.>.>.>.>.>.>.>.>.-.8.] j     C _ 9.-.>.>.>.>.>.>.>.>.>.>.>.>.>.>.>.>.>.>.>.>.>.>.;.8.` n   w   ",
">.>.>.>.>.>.>.>.>.>.>.>.>.>.>.>.>.>.>.>.>.>.>.>.>.-.8.' j     C _ 9.-.>.>.>.>.>.>.>.>.>.>.>.>.>.>.>.>.>.>.>.>.>.>.;.8._ n   w   ",
">.>.>.>.>.>.>.>.>.>.>.>.>.>.>.>.>.>.>.>.>.>.>.>.>.-.8.' j     C _ 9.-.>.>.>.>.>.>.>.>.>.>.>.>.>.>.>.>.>.>.>.>.>.>.;.8._ n   w   ",
">.>.>.>.>.>.>.>.>.>.>.>.>.>.>.>.>.>.>.>.>.>.>.>.>.-.8.' j     C _ 9.-.>.>.>.>.>.>.>.>.>.>.>.>.>.>.>.>.>.>.>.>.>.>.;.8._ n   w   ",
">.>.>.>.>.>.>.>.>.>.>.>.>.>.>.>.>.>.>.>.>.>.>.>.>.-.8.' j     C _ 9.-.>.>.>.>.>.>.>.>.>.>.>.>.>.>.>.>.>.>.>.>.>.>.;.8._ n   w   ",
">.>.>.>.>.>.>.>.>.>.>.>.>.>.>.>.>.>.>.>.>.>.>.>.>.;.8.] j     C _ 9.-.>.>.>.>.>.>.>.>.>.>.>.>.>.>.>.>.>.>.>.>.>.>.;.8.` n   w   ",
"-.-.-.-.-.-.-.-.-.-.-.-.-.-.-.-.-.-.-.-.-.-.-.-.-.| ,._ g     B / 4.| -.-.-.-.-.-.-.-.-.-.-.-.-.-.-.-.-.-.-.-.-.-. .,.( b   q   ",
"9.9.9.9.9.9.9.9.9.9.9.9.9.9.9.9.9.9.9.9.9.9.9.9.9.4.t.| l     A { y.4.9.9.9.9.9.9.9.9.9.9.9.9.9.9.9.9.9.9.9.9.9.9.7.t.} m   e   ",
"_ _ _ _ _ _ _ _ _ _ _ _ _ _ _ _ _ _ _ _ _ _ _ _ _ / [ Q s     n R { / _ _ _ _ _ _ _ _ _ _ _ _ _ _ _ _ _ _ _ _ _ _ ( [ E x   9   ",
"V V V B V V V V V V V V V V V V B V V V V V V V V N Z n :     1 b Z N V V V V V V V V V V V V V V V V V V V V V V B Z n ,   O   ",
"                                                        & > < $                                                         $ < : > ",
"                        3 7 8 3                                                                 3 8 7 3                         ",
"x x x x x x x x x x v j %     = g v x x x x x x x x x x c c c c x x x x x x x x x x x x x x v g =     % j v x x x x x x c c c c ",
"' ' ' ' ' ' ' ' ' ` { ^ p     g ! } _ ' ' ' ' ' ' ' ' ' ' ' ' ' ' ' ' ' ' ' ' ' ' ' ' ' ' _ } ! g     p ^ { ` ' ' ' ' ' ' ' ' ' ",
"8.8.8.8.8.8.8.8.8.7.q.| f     v } r.4.8.8.8.8.8.8.8.8.8.8.8.8.8.8.8.8.8.8.8.8.8.8.8.8.8.8.4.r.} v     f | q.7.8.8.8.8.8.8.8.8.8.",
"-.-.-.-.-.-.-.-.-.@.>._ a     x ) ,...-.-.-.-.-.-.-.-.-.-.-.-.-.-.-.-.-.-.-.-.-.-.-.-.-.-...,.) x     a _ >.@.-.-.-.-.-.-.-.-.-.",
">.>.>.>.>.>.>.>.>.>.4.[ s     x ' 7.:.>.>.>.>.>.>.>.>.>.>.>.>.>.>.>.>.>.>.>.>.>.>.>.>.>.>.:.7.' x     s [ 4.>.>.>.>.>.>.>.>.>.>.",
">.>.>.>.>.>.>.>.>.:.4.[ a     x ' 5.:.>.>.>.>.>.>.>.>.>.>.>.>.>.>.>.>.>.>.>.>.>.>.>.>.>.>.:.5.' x     a [ 4.:.>.>.>.>.>.>.>.>.>.",
">.>.>.>.>.>.>.>.>.:.4.[ a     x ' 5.:.>.>.>.>.>.>.>.>.>.>.>.>.>.>.>.>.>.>.>.>.>.>.>.>.>.>.:.5.' x     a [ 4.:.>.>.>.>.>.>.>.>.>.",
">.>.>.>.>.>.>.>.>.:.4.[ a     x ' 5.:.>.>.>.>.>.>.>.>.>.>.>.>.>.>.>.>.>.>.>.>.>.>.>.>.>.>.:.5.' x     a [ 4.:.>.>.>.>.>.>.>.>.>.",
">.>.>.>.>.>.>.>.>.:.4.[ a     x ' 5.:.>.>.>.>.>.>.>.>.>.>.>.>.>.>.>.>.>.>.>.>.>.>.>.>.>.>.:.5.' x     a [ 4.:.>.>.>.>.>.>.>.>.>.",
">.>.>.>.>.>.>.>.>.:.4.[ a     x ' 5.:.>.>.>.>.>.>.>.>.>.>.>.>.>.>.>.>.>.>.>.>.>.>.>.>.>.>.:.5.' x     a [ 4.:.>.>.>.>.>.>.>.>.>.",
";.;.;.;.;.;.;.;.;.-.2.' a     x _ 4.-.;.;.;.;.;.;.;.;.;.;.;.;.;.;.;.;.;.;.;.;.;.;.;.;.;.;.-.4._ x     a ' 2.-.;.;.;.;.;.;.;.;.;.",
"8.8.8.8.8.8.8.8.8.4.q.| d     v } r.4.8.8.8.8.8.8.8.8.8.8.8.8.8.8.8.8.8.8.8.8.8.8.8.8.8.8.4.r.} v     d | q.4.8.8.8.8.8.8.8.8.8.",
"_ ` ` _ ` _ _ _ ` _ [ ~ p     g Q { _ _ ` _ ` ` ` ` _ ` ` ` ` _ ` ` ` ` _ _ ` _ ` ` _ ` _ _ { Q g     p ~ [ _ ` _ _ ` ` ` ` ` _ ",
"n n n n n n n n n n m c -     : x m n n n n n n n n n n n n n n n n n n n n n n n n n n n n m x :     - c m n n n n n n n n n n ",
"                          . X                                                                     X .                           ",
"w w w w w w w w w w w 9 o     O 9 w q w w w w w w w w w w w w w w w w w w w w w w w w w w q w 9 O     o 9 w w w w w w w w w w w ",
"                                                                                                                                "
};
