/* XPM */
static char *_638082528746[] = {
/* columns rows colors chars-per-pixel */
"64 64 151 2 ",
"   c #04193F",
".  c #0B233C",
"X  c #132C38",
"o  c #1D3A33",
"O  c #3A5F1E",
"+  c #3C621D",
"@  c #26452B",
"#  c #2A4B2B",
"$  c #234231",
"%  c #3F6622",
"&  c #517D09",
"*  c #49731A",
"=  c #557F11",
"-  c #456B23",
";  c #416428",
":  c #061A42",
">  c #0A184A",
",  c #111C4B",
"<  c #131756",
"1  c #0C2045",
"2  c #1B2B44",
"3  c #13254B",
"4  c #1E2A4C",
"5  c #1F2356",
"6  c #2B364C",
"7  c #223556",
"8  c #2F3557",
"9  c #21156D",
"0  c #261C6B",
"q  c #281578",
"w  c #282566",
"e  c #39286E",
"r  c #3A3468",
"t  c #3D277D",
"y  c #40356D",
"u  c #613A7F",
"i  c #3B4A6C",
"p  c #454957",
"a  c #42526F",
"s  c #4E5C78",
"d  c #598607",
"f  c #5B8B02",
"g  c #568309",
"h  c #5F9002",
"j  c #5F900B",
"k  c #649500",
"l  c #679900",
"z  c #6B9E00",
"x  c #649910",
"c  c #6DA300",
"v  c #6BA00A",
"b  c #70A701",
"n  c #74AB02",
"m  c #78AF03",
"M  c #77B004",
"N  c #79B204",
"B  c #588320",
"V  c #37138F",
"C  c #3E129B",
"Z  c #4F309C",
"A  c #683D90",
"S  c #70319C",
"D  c #4513A1",
"F  c #5214B7",
"G  c #5520B2",
"H  c #75548C",
"J  c #7B4F9A",
"K  c #7C519A",
"L  c #707E93",
"P  c #570FC3",
"I  c #5B0FC9",
"U  c #5D10CB",
"Y  c #630FD5",
"T  c #6A0DE1",
"R  c #710CEC",
"E  c #770BF6",
"W  c #780BF7",
"Q  c #9A5FB2",
"!  c #A83BCF",
"~  c #8013F7",
"^  c #8A18F7",
"/  c #8412F8",
"(  c #911AF8",
")  c #9B23ED",
"_  c #8D21F7",
"`  c #9528F8",
"'  c #9D31F7",
"]  c #9138F8",
"[  c #BD3BE3",
"{  c #B42CFA",
"}  c #C53AEF",
"|  c #C233FA",
" . c #C93AFA",
".. c #D43DFB",
"X. c #B86DC8",
"o. c #9948F9",
"O. c #A24CF9",
"+. c #C976D4",
"@. c #D67BDF",
"#. c #C64CE4",
"$. c #D747F7",
"%. c #D840FB",
"&. c #DC4BFA",
"*. c #CD5FF7",
"=. c #DF52FA",
"-. c #DD58FB",
";. c #E259F9",
":. c #D678E1",
">. c #D569F6",
",. c #DB6DF9",
"<. c #E561F9",
"1. c #E16FFC",
"2. c #E579F6",
"3. c #EA7DF4",
"4. c #798498",
"5. c #808B9E",
"6. c #8893A5",
"7. c #9FA8B7",
"8. c #BA84FA",
"9. c #C48CFB",
"0. c #C393FA",
"q. c #E984ED",
"w. c #EC84F7",
"e. c #F284F6",
"r. c #F489F6",
"t. c #EA9CFC",
"y. c #F595F7",
"u. c #F69EF7",
"i. c #F49FF8",
"p. c #CFAAFB",
"a. c #F6A5F8",
"s. c #EEB6FD",
"d. c #F4BFFA",
"f. c #BEC5CE",
"g. c #C2C9D1",
"h. c #CFC7E6",
"j. c #DCC2FC",
"k. c #E3CFEA",
"l. c #F8C5FA",
"z. c #F2CDFD",
"x. c #E4D0FC",
"c. c #DDE2E6",
"v. c #E5E9EC",
"b. c #ECE0FD",
"n. c #F7E7FE",
"m. c #F9E4FD",
"M. c #F2ECFE",
"N. c #EDF0F2",
"B. c #F4F7F8",
"V. c #FCF7FE",
"C. c #FCFEFE",
/* pixels */
"c c z z c c c c c z c c c b N N b c c c c l z z c c c c z z c c c c k k c c c z c c c c c c c b N M b c c c c c b c c c b c c z ",
"c c c c c c c c c z c c c b N N n b c c c c z c c c b c c c c c c c l l c c z z c c c c b c c b m n n c c c b b b c c c c c z z ",
"c c c c c z z z c c z c c c c n n n c b M M b c c c c c c c c c c c z c c c z c c c l l c c c c c b M M c b N N b c c z z c c c ",
"c c c c z z z c c c z z c c c b M M b b N M c c c b c c c b b c z z c b c c z c c c l l c c b c l c M M b b N n b c z z z z c c ",
"z z z c z z c c c c z z c c z c c b b b b c l l c c z c c c M M c c c c z z c c c c c l c b c c z c c b b b b b c c c c c c c z ",
"z z z z z z c c b c c z c c z z z c c c c c k k c b c z c b N N b c c c c c c c c c c z c c c c c z c c c c c c l z c c b c z z ",
"z z z z c b n m b c b c z z c c k l c c c z k k c c c l c b N M n c z c m m c z c c c c c c c c c c c c c c c z k l c b N N b z ",
"z c b n b n m m b c c c z z c c l l c c c l l l c c z c c c M m c c z c m N c z b b c c c z c c c c c c z z c c l l z b N N n b ",
"c b N N N m b b c c z z c c c c c c c c z z c c c c c c c b b c c z c c b b c c m M N m b c z z z b l l l z z c c c z c m N N N ",
"c b N N N n b c c c z z c c b b n b c c z c c b n b b c c c c c c z c c c c c b n N N M b c c c b z l k z z z c c c z c n m N N ",
"c b N N b c c c b c z z c b N N N N c c c c c b M M b c c b c c c c l l c c z z c n N N b b M M b z k k l c c c k l c c c n N N ",
"c b M M b c c c c c z c c b N N N N n b c c b b N M c c c c c c c c k k c c c z c c n m b b M M b z l l z z c c k l c c c c m N ",
"b b b b c c c z l l c c c c c n M N N M b b N N n c z l z c c c c l k k z c c c c c c b M M b c c z b z c c c c l z c b c c c c ",
"c c c c c c c l k k z c z z c c m N N N c b N N b z k k l c c c c z l l l z c c c c c b M n c l z z c b b c c c c z c b c c c z ",
"c c l l c c b z k k l c c c z c c b N m c c N N c l k k c c c z c c c z z z z c b c c b b b c c b z z z c c b c c z z z z c c c ",
"c c l l c c b c l k z z c c z z c c n n c c n m c f f f h l z z c c c c k f h h z c c c c c c c c b c c c c c c n b z z z z c c ",
"z z c z z z c c z l c c c c z z z z c c z z b n g : :     O k l z b z &       : & l z c b c z c z b n m b c c b N N b c c c c z ",
"z c c c c z c c c c b b c c c c z z l z z z c # 8 I I I I t $ k b z # p X.X.X.X.p @ k c c c z z c b m m b c c b m m b c c c c z ",
"c c z c c c z c m N N M b c c c c c z z c c b X 9 W W W E C . k z l X y r.r.r.r.y X l c c c c c c c c b N m c z c b c c c c c c ",
"c c z z c c z c n N N N m c c c c b c z c c c X 9 W W W E C . k b z X y r.r.r.r.r X l c c b c c c c c b m m b z l z c c c b c c ",
"c z l l z c c c b n N N N n c b m m b c b c z X 9 W W W W C   O + ; H Q r.r.r.r.y X k z c c c c c c c c b b c c c c c z z z b c ",
"z l k k l c c c c b n M N N n b N m b c c z k 2 q W W W W D , , , 5 :.r.r.r.r.r.y X l z c c z z c b c c c c c c c z z z z c c c ",
"z l k k c c c c c c c n N N N N n b b z z d X U T W W W W ) [ [ [ } $.;.r.r.r.r.y X l b c c z z c c c c c c c z l k l z c c b c ",
"c z l l c c c c c c c c m N N m b z b b z = : Y W W ^ ( ( { %.=.=.=.=.<.r.r.r.r.A r = k c c z c c c z z c c c l l l z c c b c c ",
"c c z l z c c c c z c c c c b b c c z z c g : T E W | ..%.%.$.e.e.r.r.r.r.r.r.r.=.[ , O z c c c c z k k l c c c c z c c c b c c ",
"c c c z z z c c z z c c z z z c c b c z b g : T ^  .....%.<.e.r.r.r.r.r.r.r.r.r.=.[ , + z c b c c l l l z c c b c b b b c c c c ",
"c c z z c c c c z z c c z l l l c b b z j - 9 T ` 1.1.1.1.w.a.a.a.a.r.r.r.r.r.r.<.#.> + z b M M c z c c z z c c c b N N b c c z ",
"c c z c b b c c z c b b c z k k z c b l X 9 W W o.C.C.C.C.C.C.C.C.V.y.r.r.r.r.r.r.:.3 + c c n M n c b c c z c c c n N N b c c z ",
"c b c b N n b c c b N N b z k k l c c l X 9 W p.x.C.C.C.C.C.C.C.C.C.m.l.r.r.r.r.r.w.! u @ l b n m M N M b c c b N N N N b c c c ",
"c c c b N N n b c b N N b c l l z c l j 4 q T h.v.C.C.C.C.N.c.v.c.c.C.m.y.r.r.r.r.e.&.S . h c b n M N N n b c b N N N n b c c c ",
"z z c b b n m N b b N N n c c c c b - 3 Y P > 3 s C.C.V.C.6.3 3 3 7 c.B.V.a.r.r.r.r.w.K . h c c c n N N N M b c N N n c c c z z ",
"z c c c c b m n b b m n b c c c c b - : V Z 5.3 7 5.v.N.6.4.6.4.a . 4.7.C.a.r.r.r.r.r.K . l c c c b n N N N b c n m c c c z c z ",
"c c c z c c c c c c n b b c z z c b +     i N.7     f.c.3 4.N.N.4.    a C.a.r.r.r.r.r.K . k z c c c c b N N b c c c c c k l z c ",
"c c z z c c z z c b z z c b z z c c +     : 3 :     f.c.3 1 3 3 1     a C.a.r.r.r.r.r.K . k z c c c l c n n b c z z c c l l c b ",
"c c z z c c c c b z l k l c c c b c +               f.c.3             a C.a.r.r.r.r.r.J . h c c c c b c b b b c c c z c c c c c ",
"c c c c c b b b c c l l z z c c c c +   > >   : : 3 g.c.7 1         3 s V.a.r.r.r.r.q.J . k c c c c b c b c z b c c z z c c c c ",
"b c c c c b N M b c c c c c c c c b + > U F : : i c.B.B.v.L       3 g.k.y.r.r.r.r.e.&.S 1 k c c z z c b b c c z c c c c c c l k ",
"c c b b c b M N b c c c c c l z c c * $ F G a a 4.C.C.C.C.7.a a a s v.m.r.r.r.r.r.q.! A @ l b c b z z b c z z z c c b b b c l k ",
"c b M N N m b b b c c c b c l l c c c l X i C.C.C.C.C.C.C.C.C.C.V.C.C.m.r.r.r.r.r.@.3 % N N b c c z z z l k l z c b M n b c c c ",
"b n N N N n b c c z z z c c k k c c l k X w o.M.C.C.C.C.C.C.C.C.s.1.u.a.r.r.r.r.<.#.> % M M b c b z b l k k z c c b n M n c b c ",
"N N N N n c c c c z l z c c k k c c l h o w Y j.b.b.b.b.n.n.m.n.t.=.e.r.r.r.r.r.#.! 2 * b c c c l c c l k k c c c c c n M M b c ",
"N N M n b c c c c c z c c c l l c c l l z g : T W W W / ..%.%...<.r.r.r.r.r.r.r.y X n N c l c c c c c c l l c c c c c b N N n c ",
"N N n c c c b c c c c c c c z l c c c c c l g w V W 0.j.z.z.z.3.3.r.r.r.r.r.r.r.r X z n c c l c c c c c c c c l c c c b N M b c ",
"N n c c c b c c c b c c b c c c c c c c c c c X 9 W j.C.C.C.V.i.y.r.2.3.r.r.r.r.y X k c c c c c c c l c c c c l l c c c n M c c ",
"c c c z c c c c c c c b N N b c c c z c c c c X 9 W j.C.C.C.C.V.d.e._ ' r.r.r.r.y X k z c c c c l k l c c c b c l l c c b c c c ",
"c c z c c c z c c c c b N N b c c c c z c c c X r 8.b.C.C.C.C.C.l.3.^ ` r.r.r.r.y X l z c c b c l k z c c c b c l h c c c c l c ",
"z c c c c c c c c z c b N M b b N M b c z c c X a C.C.C.C.C.C.C.d.2._ ' r.r.r.r.y X l c c c b c c c c c c c c c c c c c c c c c ",
"z z c c c c c c z c c b n n c c M N c c z c c X a C.C.C.C.C.C.C.9._ ,.3.r.r.r.r.y X v n b c c c c c c c b b b c c c c c c c c c ",
"c c l l c c l l l z c b b c c c c c c c c c l X a C.C.C.C.C.C.C.8.~ 2.r.r.r.e.>.e X b m c c z c c c c b M N b c c c c c c z c c ",
"c c l l c c k k z c c c c c z z z z c c c c l X a C.C.C.C.C.C.C.8.~ 2.r.r.r.2.W 9 X n m n c c c c c c n N N b c c c c c l z c c ",
"c c c c c l k k z c c c z z c c c c z z c c c X a C.C.C.C.C.C.C.8.~ 2.r.r.r.2.W 9 X c n m M N M b b M N N N c c b c c z k l c c ",
"c c c c c l l l c c c c z c c c c c c c b b c X i j.M.C.C.C.C.C.9.( *.>.>.>.*.( q X l c n N N N b b N N M m c c c c c z l l c c ",
"c c c z c c c c c c c c c c c c z z c b N N b X 9 W p.C.C.C.C.C.t.../ E W W / ..e X k c c n N M b b M M n z z z c c c c c c c z ",
"c c z c c c b b b c b b c c b b c z z b N x $ F Y W ] O.,.1.1.1.;.%.| |  .{  .3.r X k z c c n M b b m b c l z c c b c b c c z z ",
"c c c c M M b c c b N N c b N N b c z c v B < T W W W /  .} [ [ [ [ $.&.$.&.-.r.A 6 g f c c b b b c c c z z c c c c z z c c c c ",
"c b b n M n c c c b N N n b M N c c z l o 0 R E W W W W / D , , , 5 :.e.e.e.e.q.q.+.2 + c c c c c c c l z z c c b c c c c b c c ",
"c c m m b c c c c b M N N N n b c c z l X 9 W W W W W R D r + + + ; H Q r.r.r.r.r.@.3 + c c c c z z c z l l c c c b M M b c z z ",
"c m N N c z c b c b n M N N c c c c z l X 9 W W W W W T > O l z c c X y r.r.r.r.r.@., + b b b c z c c c k k c c c b N N n c c z ",
"N N N M b z c c c z c n M m c z z z z z c c b c c c c b b c k k z c b b N N N N b c z b N m b c c c c c k k l c c c b b N n b c ",
"N N m n b c c c c z c c n m c z z z z z c c c c z z c c c c l l c c c c m N N N b c b n N m b c c c c c l l z c c c c b N N b c ",
"N M n c z z c c c c c c c c c c c c k l c b c c c c c c c z c c z c c c c n N M b b m N n b b c l l z z c c c c z c c b N N b c ",
"N m c c c z c b c c c c z z c c c c l l c b b b c c c c z z c c z c c c c c n m c b N m c z c c l k l c c c c c z z c c m n c c ",
"b b c c b c z z c b c z z z c c z z c c c b N n b c c z z z c c z z c c z c c b z c b b c z z z z z b c c z b c c c c z c c c c ",
"c c b c c c z c c c z z z c c c z c c c c b N N b c z z z z c c z c c c z z c c z z c c z z z z c b b c z z c c c c z z l c c b "
};
