/* XPM */
static char *_7f0bce72e904e3ada0186ea26e12b33f8eZiwf0Fu8sfG1b[] = {
/* columns rows colors chars-per-pixel */
"40 40 251 2 ",
"   c #35257A",
".  c #683457",
"X  c #7A335B",
"o  c #793558",
"O  c #712D54",
"+  c #5A1C79",
"@  c #4D176D",
"#  c #651F78",
"$  c #49247B",
"%  c #552876",
"&  c #572C6C",
"*  c #682B68",
"=  c #7A2D68",
"-  c #6B356A",
";  c #74336D",
":  c #7C346C",
">  c #793867",
",  c #672778",
"<  c #762B75",
"1  c #69357A",
"2  c #733373",
"3  c #7B3A74",
"4  c #78357A",
"5  c #794569",
"6  c #7C417D",
"7  c #664268",
"8  c #9A3A39",
"9  c #9F3C29",
"0  c #A33939",
"q  c #B03C01",
"w  c #A9471D",
"e  c #BB4A1C",
"r  c #BC581A",
"t  c #B95607",
"y  c #9B463C",
"u  c #95432D",
"i  c #AA462A",
"p  c #B74C28",
"a  c #AC532C",
"s  c #BB542C",
"d  c #BC5C2C",
"f  c #B75427",
"g  c #AB4A34",
"h  c #A3453B",
"j  c #AB4B3D",
"k  c #A54939",
"l  c #B54C3C",
"z  c #B94B37",
"x  c #AA5439",
"c  c #BB5533",
"v  c #B55737",
"b  c #BD6233",
"n  c #CB5402",
"m  c #C8590B",
"M  c #D75B09",
"N  c #CA5C1B",
"B  c #C6571A",
"V  c #DA5E1A",
"C  c #D55A19",
"Z  c #C94B08",
"A  c #E45F06",
"S  c #E05E12",
"D  c #CB650C",
"F  c #C86805",
"G  c #DD650B",
"H  c #D86806",
"J  c #CC7702",
"K  c #DD7303",
"L  c #DB7606",
"P  c #CA6517",
"I  c #D36413",
"U  c #DB6314",
"Y  c #D46419",
"T  c #DD6C1C",
"R  c #D86818",
"E  c #D9721A",
"W  c #E46303",
"Q  c #E36C02",
"!  c #E36B0B",
"~  c #E8670A",
"^  c #F46A05",
"/  c #E57401",
"(  c #EB7401",
")  c #E67902",
"_  c #EC7B01",
"`  c #EB7B0C",
"'  c #E9760D",
"]  c #F67A04",
"[  c #E46413",
"{  c #E66A16",
"}  c #E4711A",
"|  c #E97416",
" . c #F47B15",
".. c #F7631A",
"X. c #C54A27",
"o. c #C55B24",
"O. c #CC5B24",
"+. c #C3542B",
"@. c #C65728",
"#. c #D45925",
"$. c #C35533",
"%. c #C85936",
"&. c #D3593B",
"*. c #C76428",
"=. c #D76428",
"-. c #DB7325",
";. c #D86737",
":. c #C96636",
">. c #E36627",
",. c #EC7226",
"<. c #89364C",
"1. c #983948",
"2. c #8A3D55",
"3. c #833A5B",
"4. c #8B3C5C",
"5. c #863757",
"6. c #933D52",
"7. c #973A55",
"8. c #A43E49",
"9. c #843564",
"0. c #893D66",
"q. c #823A68",
"w. c #963866",
"e. c #843D75",
"r. c #8E3570",
"t. c #954344",
"y. c #9C4344",
"u. c #9C444B",
"i. c #9E4B4B",
"p. c #974848",
"a. c #8B425C",
"s. c #864357",
"d. c #954254",
"f. c #9D4252",
"g. c #93435C",
"h. c #9A4958",
"j. c #974F52",
"k. c #AB4543",
"l. c #A24A44",
"z. c #A54C4A",
"x. c #A84848",
"c. c #B44C44",
"v. c #B44748",
"b. c #AA5347",
"n. c #B85546",
"m. c #A14654",
"M. c #A84A57",
"N. c #B74B57",
"B. c #A75655",
"V. c #B25A52",
"C. c #854469",
"Z. c #974662",
"A. c #884574",
"S. c #904973",
"D. c #A64966",
"F. c #B54B6B",
"G. c #AD605A",
"H. c #C35342",
"J. c #C75943",
"K. c #C55551",
"L. c #D36841",
"P. c #DD8902",
"I. c #D89802",
"U. c #CA8900",
"Y. c #E48401",
"T. c #E48C01",
"R. c #EB8804",
"E. c #F38301",
"W. c #F48D03",
"Q. c #FA880B",
"!. c #E29200",
"~. c #EB9602",
"^. c #F69607",
"/. c #F68612",
"(. c #F49613",
"). c #EB8016",
"_. c #DBAD07",
"`. c #E9A803",
"'. c #F6A707",
"]. c #EDBD04",
"[. c #E9B700",
"{. c #F9B709",
"}. c #FBAB16",
"|. c #FDB71A",
" X c #FDAC28",
".X c #ECC705",
"XX c #F8C403",
"oX c #FCC917",
"OX c #F1D20D",
"+X c #FAEE12",
"@X c #FECF36",
"#X c #FCCE24",
"$X c #FFF132",
"%X c #FFE85A",
"&X c #341598",
"*X c #381393",
"=X c #3B259B",
"-X c #3E258B",
";X c #1613AD",
":X c #0102BC",
">X c #0B07B9",
",X c #170BB9",
"<X c #1714B8",
"1X c #0C00AD",
"2X c #270DAB",
"3X c #2719A8",
"4X c #3A13A4",
"5X c #3619A8",
"6X c #240ABA",
"7X c #3715B6",
"8X c #3210B3",
"9X c #3223AA",
"0X c #481989",
"qX c #511D8C",
"wX c #54178C",
"eX c #441C97",
"rX c #471999",
"tX c #541A96",
"yX c #520F80",
"uX c #621D88",
"iX c #4B2289",
"pX c #582687",
"aX c #5A3389",
"sX c #492299",
"dX c #582597",
"fX c #5D3595",
"gX c #632B8A",
"hX c #662786",
"jX c #752E86",
"kX c #683485",
"lX c #713287",
"zX c #682996",
"xX c #653593",
"cX c #763293",
"vX c #441CA6",
"bX c #4519BA",
"nX c #4A21A2",
"mX c #5828A5",
"MX c #0B02CA",
"NX c #0706C8",
"BX c #1906C9",
"VX c #0906D6",
"CX c #1607D4",
"ZX c #1715C8",
"AX c #2809C7",
"SX c #2517C6",
"DX c #2C10CF",
"FX c #0F06E4",
"GX c #4D13CA",
"HX c #803789",
"JX c #AF5686",
/* pixels */
"OX.X[.`.`.'.}.#X{.].OX+X+X+XOX.X`._ H r a p.3.= 2 2 2 : 3.<.p.V.x r J R.(.(.}.|.",
"OX.X[.`.I.Y.R.(.}.`.`.].OX#XXX`.T.) J r g t.3.> 2 2 2 : X <.d.B.y w F P.(.(.`.{.",
"OXXX`.!.P.K / ) R.Y.P.!.'.'.~.R.` ' R o.x l.2.> 2 4 A.: X 5.g.B.y p P Y.R.T.`.'.",
"XX{.'.R.( ( ~ ! Q Q ) R.Q.^.E.( ' T #.s j y.d.0.: A.e.= O 3.Z.6.1.c -./.^.~.'.{.",
"{.}.(./.' { [ S H Q _ /.^.Q.E.( T #.+.p 8 8 6.2.0.0.9.O 5.Z.4.<.0 $.} /.W.W.'.}.",
"'.`.(.).} V C B B N P R E E R =.%.J.z l h y.d.j.D.Z.6.6.7.D.M.k.J.-.` _ ( ) T.!.",
"`.~.Y.' T #.X.0 0 h y.y y.i.l.x.c.c.n.b.z.z.i.B.B.j.m.m.M.M.M.n.;.} _ ( Q ( L P.",
"~.T.Y.L -.%.z 8.1.4.C.e.e.: < = <.y x.z.z.i.i.i.t.y y l.8.8 x.H.#.K / ( _ Q. X X",
"^ ^ S #.a l.a.4 cXqX0XrXfXdX% gXcX1 - - > 3.6.y.d *.O.$.c.c.x n.c.n.=.V W Q ) ` ",
"^ ' U B k t.. % iX&X4X5XvX5X&XnX0X+ & 5 5 C.g.8.a r o.$.l k.l.y h g r m W ( / L ",
" .| T *.b.s.- iX&X2X,XSXSX>X<X<X8XrX1 5 5 o 9.w.k.s N o.c j u.1.l.i p Y |  . .H ",
"] ' } *.x j.- pX5X6XCXCXVXVXNXCXDXGXaX7 . O 9.w.N.%.P P d b.d.g.y.g @.-. ./.| L ",
"^ ^ ~ Y c i.: gX&X7XBXBXVXVXVXFXCXAXiX& . . r.F.K.&.Y Y @.b.h.Z.y.g $.,.| H H D ",
"^ ^ W C $.z.0.jXmXbXAXBXMXNXNXZXMXAX=X1 - o Z.F.&.=.G M d l m.6.t.j %.;.} n n I ",
"^ ..U O.l u.3 gXmX7X6X>X:X:X:X:XMX6X=XaX1 9.8.c.>.~ W V %.l h y y.j %.;.Y n D E ",
"{ V N f y <.- % &X2X1X>X:XNX:X:X>X,X3XiX, q.N.;.~ W ~ >.&.n.i u y h c =.C n N -.",
"V.b.y p.C.1 dX7XAXBXNXNXNXVXFXFXMXBX7XnXgXe.j.v *.D D r d c.M.m.u s O.#.C #.&.;.",
"m.p.t.s.> kXnX7X,X,X<X<X>XNXVXNX,X;X5XnXgX< Z.n.%.o.B m r w g i d d @.C C #.$.p ",
"1.7.d.2.> , dXbX8X2X3X3X3X<X,X>X<X3X3XsXwX< w.N.%.X.C m m P P *.:.:.@.X.X.X.z 9 ",
"8.x.z.i.2.- hXzXvXvX=X=X=X9X2X2X>X,X3XeX, r.M.%.#.V ! { E E -.-.*.$.s z H.K.v.1.",
"k.n.n.n.y.2.= jXzXzXdXpXdXeX4X6XCXAX8XdX; u.d I Q ^ ^ ' U N B e p i z v.M.m.g.C.",
"1.l.b.b.p.5.: jXjXzXgXgXpXdXrXbXAXAX4XgXg.v I W Q ^ ] | U @.p i i g k.f.4.o - 7 ",
"* 3 5 5 > - , uXzXdXgXgXgXdXnXvX7X4X0X; B.:.E A A ^ ..{ #.@.f c x c.m.Z.> & @ & ",
"dXdXaXkXaXpXrXrX0X0XpXxXxXfXdXsXvX0X& o V.L.U Z ......>.C r r d v V.D.S.4 % $ $ ",
"    iXmXmXmXtXyX, & * - 1 1 & % mXyX% S.V.a t I | ..[ S S M M Y N @.s y o * $ 0X",
"9X5X&XvXnXdXhX4 3 > q.e.6 kXgXwX@ & > a.k w r =.[ [ [ { ~ W K G *.c j t.X * iXeX",
"DXZX6X5X4XpXgX3 C.S.C.3 3 hXuXuX* 3.j.b.x d #.>.C V [ { ' L H D d x.u.2.* hXeXvX",
"FXVXCXSX5X&XpXkXlX3 3 < , , hX< 9.<.1.9 p r m n W ! | | E Y m f c.m.g.q.1 pXrX5X",
"NXNXZXSX7X5XeXdXcXcXlX< * - 5 A.JXD.N.K.L.#.U ( ` /.).,.;.%.z v.8.8.7.0.4 pXrX&X",
"ZX>X;X2X&X-XqXgXjXjX< q.q.a.j.j.1.1.8.K.p q Z Q _ ] ' U O.p v.8.v.x.f.g.e.kXqX0X",
"SX3X&X0X% * X a.7.1.8.m.z.z.k g i f &.&.X.e B >.M [ ~ I n B X.&.%.X.g y.0.3 pXiX",
"GXbXtX4 C.B.x d p p $.J.J.J.z w t F P r X.&.&.X.#.C U W H H ! { =.%.p g d.> 1 pX",
". . O a.h.m.1.0 l z J.J.$.f f f =.>.>.C X.O.s c x b.x x a *.o.r v b.b.z.m.6.3.o ",
"p.z.V.V.b.g c ;.X.@.O.O.N B N I Q / H M Z B c l 1.h.d.s.1.k.c.l v x g g h h p.p.",
"=.N B N P P D D F H L L Q '  .Q._ E./ H B $.c.D.5.9.3.5.2.m.c.n.v s p e e e a z ",
"..A G Q ) K H J Y.R.R.E.] ] ] ] /.| ,.=.%.N.D.r.= < = X i.b.b *.@.@.V U G [ } >.",
"^ ] Q.Q.R.) ~.}.|.|.^.Y.) _ _ _ E.] } ;.J.M.r.< hX# , = g.B.l p o.#.{  .Q.Q./. X",
"W.W.W.T.Y.~.}.#X|.}.!.J J !.^.^.^.W.Y.' :.k.5.< uXwXwXgXcXA.9.8 %.U | _ E.E.P.P.",
"|._.U.U.I.`.{.oX{.{.I.I.`.oX#XoX'.^.Y.L *.k 5.2 wXqXqXxXjX4 9.1.&.S ~ / L I.I._.",
"#XOX_._._.`.{.oX{.XX]..X#X$X$XoX(./.E *.v t.o 2 % pXgXkX; X 7.v.#.S Q ) !.'.@X%X"
};
