/* XPM */
static char *_638023856612[] = {
/* columns rows colors chars-per-pixel */
"64 64 23 1 ",
"  c #251C1C",
". c #281F1F",
"X c #292020",
"o c #2B2323",
"O c #2E2525",
"+ c #302727",
"@ c #322828",
"# c #352B2B",
"$ c #362B2B",
"% c #372C2C",
"& c #3A2F2F",
"* c #3B2F2F",
"= c #3D3131",
"- c #3D3232",
"; c #433636",
": c #443737",
"> c #443838",
", c #473939",
"< c #4A3B3B",
"1 c #4A3C3C",
"2 c #4D3E3E",
"3 c #4E3F3F",
"4 c #524242",
/* pixels */
"OOoooooo.ooooo.ooooooooooooooooooooooooooooooooooooooooooooo.ooO",
"OO#%###%%%%%###&#*##%##&#####&####%######*##%##&#####&####&#%#+O",
"o%;1<<<<<<<,11<<<<<<<<<<<<<<<<<<<<<<<<<<<<<<<<<<<<<<1<<<<<<2<:#o",
"o%1442224<144141222222222222<42222242222222222222222<42222224<%o",
"o#<2,;::,;>;-,;,::::::::::::::::,:::<;;:::::::::::::::::::;,2<&o",
"o%12;-*----------*---------------*-*--*--*-----*-----------;2<#o",
"o#<2:-&&&&&&&&&&*&&**&**********&&%;*--%*&&****&******&*&&-:2<#o",
"o#<2,-&#########%##%##%%########%#%%@@%%%##%##%##########&-:2<#o",
"o%<<:-*##O#OO#O#+@++@+@+++@@++@@+++++@@+@+@@#+++++@+@+++#&-:2<#o",
"o%<4:-&#+oooOOOoo++oo+o+++oo++oooOo+oo+o+oo+ooo+++o+o+o+#&-:2<#o",
"o#<2:-*#+OoXo  o................ooo.o..o.oo o..o.....oo##&-:2<#o",
"o#<2:-*##o   o   .. . .  ..  ..     .    .   .  .    .o+#&-:2<%o",
"o#<2:-&#+o. .. ...   ...... ..    . .. .. .. .. .. . .o+#&-:2<&o",
"o#<2:-&#++.  . . .....  . .. ... o. . .... . ..  . ...o##&-:2<#o",
"o#<2:-&##o... .. .... .. . . ... o ...    ....... ....++#*-:2<#o",
"o#<4:-&##o. ... ..  .. ... ...  .  . ...... .  ....  oo+#*-:2<#o",
"o#<2<-&#++. .. .. ..  ... ... ..... .  ..  . ...  .. .++%*-:2<#o",
"o#<2;-&#++... .... .... . . .. .  ............  ... ..o@%*-:2<%o",
"o#<2:-&#@o....    ..... .. .  .... . ..  .. . ..... ..++#&-:<<#o",
"o#<2:-*#@o.  ......   .. ...... . .. ..  .. .. .  .. .o@%*-:2<%o",
"o%2<:-&#++. .  . ...... ..   ..... . ...... . .... . .o+#&-:2<%o",
"o#<4:-*#++........  . .. .....   . ... .. ... . . ....++#*-:4<#o",
"o#<2:-&#@o.. .. . .. . . .... ... ... .  . ... ...   .+@#*-:2<#o",
"o#<2:-*#@o.  .. .. ... ...  .. .... . .... . ... .....o+#*-:2<#o",
"o#<2:-&#@oo  ...  ....  ... . .. .. ...  ... .. ...  .+@#*-:2<#o",
"o#<2:-&#@+. .. ....  .... ... .  .. . .... . ..   .. oo@#*-:4<#o",
"o#<2:-*##oo . . ...  ... . ... ..... . .. . ...... . oo+#&*:2<#o",
"o#<4:-*#+o. . ..  ....  .. . ....  ... .. ...  .. .. .+@%*-:2<#o",
"o#<2<-&#+o.... ... .. ... .. .. .  ... .. ...  ... . oo@#*-:2<#o",
"o#<2;-&#++. . ... .... ... . .. .... . .. . .... . . .++#*-:4<#o",
"o#<2:-&#+o....  ..    ..  ...... .. . .... . .. . .. o+@#*-:2<#o",
"o#<2:-&#++.. ... ...... ... .  . .. ...  ... .. ...  .o+#&-:2<#o",
"o%<<:-*%@...... ... .  ..  . ..... ... ...  .. ... . .o+%*-:2<*o",
"o%<4:*&#@+.   ..  ............  . .. . . .... .. . ...++#**:2<#o",
"o#<2:-&#@+. .. ... . ..  .. . ....  . .. .....  . ....o#%*;:2<#o",
"o#<2:-*%@oo . ... .. ..  .. .. . ...... ..   ...... ..o+@**:2<#o",
"o#<2:-*#@.o ..  .. . ...... . .....   .. ......  ..  oo@#&-:2<&o",
"o#<2:-&#@+.  ... . ... .. ... .   ..... .. .  .. ..  .o##&-:2<#o",
"o%<2:-*#+oo  .... ... .  . ... ... .... . . .. ......oo+#*-:2<#o",
"o#<4:-*#@+. ..  ... . .... . .... ..  ... ... ...  . .o+#&-:2<#o",
"o#<2<-&#@+  . .. .. ...  ... .. .. . ...  ....  .  ...++#*-:2<&o",
"o#<2:-&#@oo .. . .. . .... . ..  . ... ....  ....... .o+#*-:2<#o",
"o#<2:-&#@+o   ...... . .. . ..... ... . ...  ... ..  .o+#&-:2<#o",
"o#<2:-&#@o. ... .  ... .. ...  .... . ..  ....   .....++%*-:2<#o",
"o%<<:-&#@+  ... .  ... .. ...  . .. .. ... .. ..... ..o+#&-:2<&o",
"o%<4:-*#+oo   ...... . .. . .... .. . ... .... .. ....++#&-:2<#o",
"o#<2:-&#@+o .. . .. . .... . .. ......  ..    .. . . .++#*-:2<#o",
"o#<2:-*#@o. . .. .. ...  ... .. .  . ... ...... .. ...o+#&-:2<#o",
"o#<2:-&%+o.  . ...  .. ... . ....  . ...... .   .. . .+@%*-:2<&o",
"o#<2:-&#+Oo o .  .... .. . ... .......    .....o . ...o+#*-:2<#o",
"o%<2:*%%++o .... .....  . ... .  .. . .... . .. . .. .+@%*-:2<#o",
"o#<4;;*#+o. . . ..   ...... . .. .. .. .. .. .  ... ..o@#*-:2<#o",
"o#<2<-%%++                        .   .           .. .o@#&-:2<&o",
"o#<2;--#+oooo.oo oooo ooooo..oo o..o oo.oo.o.ooo......o@#&-:2<#o",
"o#<2;-*%++ooo+ooo++oOOoOooo+o+o++ooo+oo+o+oo+oOo+o+oo+o+#&-:2<#o",
"o#<2:-%%@o@@+@@+@++@++++++@@@@+@+++#@@+@+@@@+++++@++@@+@#&-:2<#o",
"o#<2;-&#%######%%%@@%%#%############%##%%%@@%%#%#########&*:2<&o",
"o&<2;-&&&*&&**&*%*--*%&&*************&&*%*--*%&&*&*&&&&&&*-:2<#o",
"o#<2;---------*-----;*----------*-----*-----;*----------*--:2<#o",
"o#<2:;;<:::::::::;;<:::::::::::::::::::::;;<::::::::::;<:::,2<#o",
"o#<422224222224<22224222224<22222222222222224222224<222222224<&o",
"o#:<<<<<<<<<<<<2<<<<<<<<<<<2<<<<<<<<<<<<<<<<<<<<<<<<<<<<2<<<<:#o",
"o+#&#####%####%%#####%#####%####&##%##*######%####%%##%##*##*%oo",
"Ooooooooooooooooooooooooooooooooooooooooooooooooooooooo.oo.oooo+"
};
